<svg width="342" height="58" viewBox="0 0 342 58" fill="none" xmlns="http://www.w3.org/2000/svg">
<g clip-path="url(#clip0_28707_44518)">
<path d="M24.9854 29.2268C27.6837 29.2268 29.8711 27.0764 29.8711 24.4237C29.8711 21.771 27.6837 19.6206 24.9854 19.6206C22.287 19.6206 20.0996 21.771 20.0996 24.4237C20.0996 27.0764 22.287 29.2268 24.9854 29.2268Z" fill="black"/>
<path d="M24.9851 40.3194C26.5426 40.3194 27.8052 39.0782 27.8052 37.547C27.8052 36.0159 26.5426 34.7747 24.9851 34.7747C23.4276 34.7747 22.165 36.0159 22.165 37.547C22.165 39.0782 23.4276 40.3194 24.9851 40.3194Z" fill="black"/>
<path d="M17.2801 17.4537C18.8376 17.4537 20.1002 16.2125 20.1002 14.6813C20.1002 13.1502 18.8376 11.9089 17.2801 11.9089C15.7226 11.9089 14.46 13.1502 14.46 14.6813C14.46 16.2125 15.7226 17.4537 17.2801 17.4537Z" fill="black"/>
<path d="M32.9158 17.4537C34.4733 17.4537 35.7359 16.2125 35.7359 14.6813C35.7359 13.1502 34.4733 11.9089 32.9158 11.9089C31.3583 11.9089 30.0957 13.1502 30.0957 14.6813C30.0957 16.2125 31.3583 17.4537 32.9158 17.4537Z" fill="black"/>
<path d="M37.4422 31.9991C38.9997 31.9991 40.2623 30.7579 40.2623 29.2267C40.2623 27.6956 38.9997 26.4543 37.4422 26.4543C35.8847 26.4543 34.6221 27.6956 34.6221 29.2267C34.6221 30.7579 35.8847 31.9991 37.4422 31.9991Z" fill="black"/>
<path d="M13.0828 31.9991C14.6403 31.9991 15.9029 30.7579 15.9029 29.2267C15.9029 27.6956 14.6403 26.4543 13.0828 26.4543C11.5253 26.4543 10.2627 27.6956 10.2627 29.2267C10.2627 30.7579 11.5253 31.9991 13.0828 31.9991Z" fill="black"/>
<path d="M24.9854 51.6843C26.3155 51.6843 27.3937 50.6243 27.3937 49.3168C27.3937 48.0092 26.3155 46.9492 24.9854 46.9492C23.6554 46.9492 22.5771 48.0092 22.5771 49.3168C22.5771 50.6243 23.6554 51.6843 24.9854 51.6843Z" fill="black"/>
<path d="M24.9854 8.2556C26.3155 8.2556 27.3937 7.19561 27.3937 5.88805C27.3937 4.58049 26.3155 3.52051 24.9854 3.52051C23.6554 3.52051 22.5771 4.58049 22.5771 5.88805C22.5771 7.19561 23.6554 8.2556 24.9854 8.2556Z" fill="black"/>
<path d="M43.4286 21.0554C44.4166 21.0554 45.2175 20.268 45.2175 19.2967C45.2175 18.3255 44.4166 17.5381 43.4286 17.5381C42.4406 17.5381 41.6396 18.3255 41.6396 19.2967C41.6396 20.268 42.4406 21.0554 43.4286 21.0554Z" fill="black"/>
<path d="M10.6739 8.2556C12.004 8.2556 13.0822 7.19561 13.0822 5.88805C13.0822 4.58049 12.004 3.52051 10.6739 3.52051C9.34385 3.52051 8.26562 4.58049 8.26562 5.88805C8.26562 7.19561 9.34385 8.2556 10.6739 8.2556Z" fill="black"/>
<path d="M5.8578 21.3793C6.96042 21.3793 7.85428 20.5005 7.85428 19.4166C7.85428 18.3326 6.96042 17.4539 5.8578 17.4539C4.75518 17.4539 3.86133 18.3326 3.86133 19.4166C3.86133 20.5005 4.75518 21.3793 5.8578 21.3793Z" fill="black"/>
<path d="M1.77904 34.4378C2.76157 34.4378 3.55807 33.6548 3.55807 32.6889C3.55807 31.723 2.76157 30.9399 1.77904 30.9399C0.796502 30.9399 0 31.723 0 32.6889C0 33.6548 0.796502 34.4378 1.77904 34.4378Z" fill="black"/>
<path d="M36.2326 43.024C37.4026 43.024 38.351 42.0916 38.351 40.9414C38.351 39.7913 37.4026 38.8589 36.2326 38.8589C35.0627 38.8589 34.1143 39.7913 34.1143 40.9414C34.1143 42.0916 35.0627 43.024 36.2326 43.024Z" fill="black"/>
<path d="M47.9191 34.4152C48.8889 34.4152 49.675 33.6423 49.675 32.6889C49.675 31.7355 48.8889 30.9626 47.9191 30.9626C46.9493 30.9626 46.1631 31.7355 46.1631 32.6889C46.1631 33.6423 46.9493 34.4152 47.9191 34.4152Z" fill="black"/>
<path d="M13.0822 43.024C14.2522 43.024 15.2006 42.0916 15.2006 40.9414C15.2006 39.7913 14.2522 38.8589 13.0822 38.8589C11.9123 38.8589 10.9639 39.7913 10.9639 40.9414C10.9639 42.0916 11.9123 43.024 13.0822 43.024Z" fill="black"/>
<path d="M39.2999 8.2556C40.63 8.2556 41.7082 7.19561 41.7082 5.88805C41.7082 4.58049 40.63 3.52051 39.2999 3.52051C37.9698 3.52051 36.8916 4.58049 36.8916 5.88805C36.8916 7.19561 37.9698 8.2556 39.2999 8.2556Z" fill="black"/>
<path d="M68.6638 0C69.1053 18.461 69.1086 37.1326 68.6638 55.5936C68.2224 37.1326 68.2257 18.461 68.6638 0Z" fill="black"/>
<path d="M97.7412 19.0635V27.0536C97.7064 28.1985 97.7948 29.3438 98.0048 30.4705C98.1357 31.096 98.4255 31.6789 98.8471 32.1647C99.2688 32.6506 99.8086 33.0237 100.416 33.2493C101.108 33.4785 101.831 33.6041 102.561 33.6218V34.14H87.8906V33.6218C88.6216 33.604 89.3456 33.4785 90.0386 33.2493C90.5822 33.0464 91.0722 32.7253 91.4718 32.3101C91.9748 31.8086 92.3182 31.1738 92.4601 30.4834C92.6612 29.3514 92.7462 28.2023 92.7138 27.0536V10.4192C92.7466 9.27044 92.6616 8.12135 92.4601 6.98934C92.3175 6.29826 91.9742 5.66264 91.4718 5.15943C91.0751 4.73241 90.5788 4.40672 90.0255 4.21047C89.3349 3.99145 88.616 3.87039 87.8906 3.85097V3.33276H98.9569C100.808 3.33276 102.027 3.33276 102.607 3.35544C104.979 3.45908 106.84 3.77432 108.188 4.30116C109.611 4.83232 110.838 5.77244 111.71 6.99906C112.554 8.22736 112.991 9.6821 112.962 11.1641C112.997 12.2481 112.769 13.3246 112.298 14.3054C111.828 15.2862 111.127 16.1432 110.254 16.8061C109.696 17.2316 109.082 17.5802 108.429 17.8425C107.561 18.1734 106.666 18.4303 105.753 18.6101C106.497 18.8848 107.188 19.2824 107.796 19.7857C108.175 20.1321 108.501 20.5316 108.761 20.9711C109.051 21.444 109.491 22.2828 110.079 23.4877C111.439 26.2406 112.468 28.253 113.166 29.5247C113.669 30.494 114.256 31.4183 114.922 32.2874C115.222 32.6829 115.601 33.0137 116.036 33.2591C116.503 33.4672 117.006 33.5901 117.518 33.6218V34.14H109.885C109.503 33.3109 109.259 32.7862 109.15 32.5595L107.546 28.9709C106.681 27.0157 105.707 25.1094 104.627 23.261C103.649 21.6221 102.754 20.5015 101.942 19.8991C101.547 19.6051 101.1 19.3855 100.624 19.2513C100.053 19.1134 99.4658 19.0492 98.8778 19.0603L97.7412 19.0635ZM97.7412 18.5647H98.6143C100.512 18.5647 101.87 18.4568 102.69 18.2408C103.556 18.0055 104.349 17.5601 104.996 16.9453C105.777 16.2307 106.396 15.3611 106.81 14.3942C107.225 13.4272 107.426 12.3848 107.401 11.3358C107.408 10.1835 107.169 9.04261 106.699 7.98688C106.268 6.98541 105.603 6.09777 104.759 5.39586C104.085 4.86788 103.295 4.5009 102.452 4.32383C101.204 4.08837 99.9341 3.9863 98.6637 4.01938H97.7247L97.7412 18.5647Z" fill="black"/>
<path d="M118.603 24.6148C118.603 22.1749 119.522 20.0006 121.36 18.0919C123.594 15.7773 126.264 14.6189 129.372 14.6167C132.48 14.6145 135.15 15.7729 137.381 18.0919C139.215 20.0179 140.133 22.1998 140.135 24.6375C140.14 27.0329 139.203 29.3374 137.52 31.0697C135.376 33.3886 132.667 34.547 129.392 34.5449C127.858 34.582 126.334 34.2903 124.926 33.6902C123.518 33.0901 122.259 32.1959 121.238 31.0697C120.408 30.1867 119.751 29.1614 119.298 28.0447C118.845 26.9557 118.609 25.7913 118.603 24.6148ZM122.783 24.3557C122.783 26.9726 123.38 29.189 124.572 31.0049C125.921 33.0345 127.568 34.0494 129.514 34.0494C130.364 34.0417 131.196 33.8077 131.922 33.3725C132.73 32.8967 133.421 32.2507 133.945 31.481C134.605 30.5111 135.098 29.4409 135.405 28.3135C135.758 27.1111 135.94 25.8663 135.945 24.6148C135.941 23.3493 135.743 22.0915 135.358 20.8837C135.018 19.7271 134.487 18.633 133.787 17.645C132.533 15.9457 130.995 15.096 129.175 15.096C127.446 15.096 125.954 15.991 124.697 17.781C123.441 19.5709 122.805 21.7625 122.79 24.3557H122.783Z" fill="black"/>
<path d="M161.819 31.9506L162.208 32.1773C161.659 33.7556 160.396 34.5448 158.419 34.5448C157.452 34.5815 156.499 34.3038 155.708 33.7546C155.102 33.2537 154.601 32.6408 154.235 31.9506C153.521 32.617 152.743 33.2146 151.913 33.7351C150.845 34.2926 149.649 34.5714 148.44 34.5448C146.754 34.5448 145.419 34.1465 144.428 33.3497C143.941 32.9609 143.553 32.4655 143.296 31.9031C143.038 31.3408 142.918 30.727 142.945 30.1109C142.928 29.5352 143.027 28.9619 143.237 28.4239C143.446 27.8859 143.761 27.3938 144.164 26.9758C144.619 26.5114 145.156 26.1327 145.749 25.8584C146.585 25.4999 147.453 25.2159 148.342 25.0099C149.659 24.686 150.648 24.401 151.307 24.1775C151.877 23.9844 152.415 23.7105 152.904 23.3646C153.355 23.0653 153.706 22.6416 153.913 22.1468C154.122 21.5204 154.215 20.8623 154.189 20.2035C154.189 18.4459 153.852 17.1591 153.178 16.3429C152.86 15.958 152.456 15.6499 151.998 15.4425C151.529 15.219 151.014 15.1028 150.493 15.1025C149.898 15.0933 149.314 15.2591 148.816 15.5786C148.326 15.8932 147.943 16.3443 147.716 16.8741L147.142 18.1696C147.021 18.4975 146.795 18.7781 146.498 18.9695C146.201 19.1609 145.849 19.253 145.495 19.2319C145.252 19.2392 145.01 19.1979 144.783 19.1105C144.557 19.0231 144.35 18.8914 144.177 18.7234C144.008 18.5638 143.873 18.3723 143.781 18.1603C143.688 17.9482 143.641 17.7201 143.64 17.4894C143.64 16.7229 144.189 16.0752 145.287 15.5462C145.998 15.2388 146.744 15.0148 147.508 14.879C148.359 14.7096 149.226 14.6229 150.094 14.6199C151.093 14.626 152.088 14.7466 153.059 14.9794C153.956 15.1738 154.823 15.4853 155.636 15.9057C156.079 16.1234 156.473 16.4279 156.793 16.8004C157.114 17.173 157.353 17.6058 157.497 18.0724C157.648 18.8185 157.71 19.5794 157.681 20.3396V28.6988C157.648 29.6654 157.71 30.6329 157.866 31.5878C158.127 32.6566 158.754 33.1964 159.747 33.2072C160.134 33.2284 160.52 33.1432 160.861 32.9611C161.238 32.6819 161.562 32.3399 161.819 31.9506ZM154.219 23.0569C153.378 23.7454 152.465 24.3436 151.494 24.8414C150.7 25.2414 149.93 25.6859 149.188 26.1726C148.752 26.4812 148.359 26.8449 148.019 27.2543C147.305 28.1136 146.921 29.1925 146.935 30.302C146.899 31.1948 147.196 32.0697 147.768 32.7635C148.023 33.0736 148.346 33.3224 148.713 33.4908C149.08 33.6592 149.482 33.7428 149.887 33.7351C150.649 33.73 151.39 33.4886 152.005 33.0453C152.678 32.5854 153.204 31.9475 153.524 31.2056C153.996 30.1995 154.232 28.7399 154.232 26.8268L154.219 23.0569Z" fill="black"/>
<path d="M178.892 34.9076C178.734 34.1193 178.657 33.3175 178.661 32.5141C177.669 33.1691 176.594 33.6929 175.462 34.072C174.42 34.3944 173.333 34.5539 172.24 34.5448C170.066 34.5967 167.947 33.8666 166.281 32.4914C165.214 31.604 164.38 30.4777 163.849 29.2073C163.274 27.8378 162.986 26.3683 163.003 24.8868C162.987 23.3106 163.299 21.748 163.918 20.2942C164.488 18.9447 165.368 17.7431 166.488 16.7834C168.221 15.3421 170.429 14.5717 172.698 14.6166C173.71 14.5938 174.716 14.762 175.663 15.1122C176.708 15.5779 177.681 16.1863 178.553 16.9194V8.57308C178.553 6.94074 178.275 5.76398 177.719 5.04282C177.164 4.32165 176.248 3.96214 174.972 3.9643V3.42019L182.019 2.54248V28.6632C182.019 30.3603 182.294 31.5695 182.845 32.2906C183.396 33.0129 184.308 33.3724 185.577 33.3724V33.9359L178.892 34.9076ZM178.563 24.388C178.596 22.8147 178.504 21.2411 178.286 19.6821C178.152 18.7671 177.815 17.8923 177.297 17.1202C176.871 16.5364 176.305 16.0638 175.65 15.7437C174.989 15.4074 174.256 15.2298 173.512 15.2255C171.88 15.2255 170.47 15.9812 169.282 17.4927C168.528 18.4642 167.959 19.5613 167.602 20.7314C167.197 21.9785 166.993 23.2799 166.996 24.5888C166.993 25.877 167.186 27.1583 167.566 28.3912C167.898 29.5338 168.424 30.6134 169.121 31.5846C170.265 33.1198 171.667 33.8874 173.328 33.8874C174.122 33.8871 174.903 33.6851 175.594 33.3011C176.304 32.916 176.902 32.3585 177.33 31.6817C177.824 30.8611 178.15 29.9534 178.289 29.0098C178.51 27.4791 178.607 25.9337 178.579 24.388H178.563Z" fill="black"/>
<path d="M197.219 19.0635V27.0536C197.185 28.1986 197.275 29.344 197.486 30.4705C197.617 31.0956 197.907 31.678 198.328 32.1638C198.749 32.6496 199.288 33.023 199.895 33.2493C200.588 33.4785 201.312 33.604 202.043 33.6218V34.14H187.372V33.6218C188.103 33.6037 188.827 33.4782 189.52 33.2493C190.063 33.0456 190.553 32.7247 190.953 32.3101C191.456 31.8086 191.8 31.1738 191.942 30.4834C192.141 29.3512 192.225 28.2022 192.192 27.0536V10.4192C192.225 9.27056 192.142 8.12151 191.942 6.98934C191.799 6.29826 191.456 5.66264 190.953 5.15943C190.556 4.7334 190.06 4.40787 189.507 4.21047C188.816 3.99145 188.097 3.87039 187.372 3.85097V3.33276H198.438C200.29 3.33276 201.507 3.34032 202.089 3.35544C204.461 3.45908 206.32 3.77432 207.666 4.30116C209.085 4.83506 210.308 5.77481 211.178 6.99906C212.022 8.22736 212.46 9.6821 212.43 11.1641C212.465 12.2484 212.237 13.3253 211.766 14.3062C211.294 15.2871 210.593 16.1439 209.719 16.8061C209.162 17.2322 208.547 17.581 207.894 17.8425C207.036 18.1721 206.151 18.4289 205.248 18.6101C205.992 18.8856 206.682 19.2831 207.291 19.7857C207.669 20.1329 207.994 20.5322 208.256 20.9711C208.546 21.444 208.985 22.2828 209.574 23.4877C210.936 26.2406 211.965 28.253 212.661 29.5247C213.162 30.4947 213.75 31.4191 214.417 32.2874C214.716 32.6836 215.095 33.0144 215.53 33.2591C215.998 33.4676 216.5 33.5906 217.013 33.6218V34.14H209.366C208.984 33.3109 208.74 32.7862 208.632 32.5595L207.024 28.9709C206.159 27.0164 205.186 25.1102 204.108 23.261C203.131 21.6221 202.236 20.5015 201.423 19.8991C201.028 19.6063 200.581 19.3868 200.105 19.2513C199.534 19.1134 198.947 19.0492 198.359 19.0603L197.219 19.0635ZM197.219 18.5647H198.092C199.99 18.5647 201.349 18.4568 202.168 18.2408C203.034 18.0052 203.827 17.5598 204.474 16.9453C205.258 16.2317 205.879 15.3628 206.297 14.3958C206.714 13.4289 206.918 12.3859 206.895 11.3358C206.904 10.1837 206.666 9.04282 206.197 7.98688C205.766 6.98541 205.101 6.09777 204.256 5.39586C203.582 4.86788 202.793 4.5009 201.95 4.32383C200.702 4.08852 199.432 3.98645 198.162 4.01938H197.219V18.5647Z" fill="black"/>
<path d="M233.841 34.5447C233.64 33.6186 233.54 32.674 233.542 31.727C232.664 32.6278 231.609 33.3425 230.44 33.8271C229.271 34.3117 228.014 34.5559 226.745 34.5447C224.832 34.5447 223.295 34.087 222.133 33.1715C220.971 32.256 220.404 30.9778 220.433 29.3368V21.4925L220.403 19.7791C220.428 19.0308 220.366 18.2822 220.219 17.5476C220.104 17.095 219.866 16.6818 219.53 16.3525C219.085 15.9477 218.291 15.6465 217.142 15.4521V14.9534H223.892V26.3992C223.87 27.5892 223.927 28.7793 224.063 29.9619C224.143 30.6328 224.358 31.2814 224.696 31.8695C225.052 32.3976 225.552 32.8163 226.139 33.0776C226.798 33.3772 227.518 33.5278 228.244 33.518C229.073 33.5238 229.893 33.3548 230.649 33.0225C231.347 32.7306 231.955 32.2637 232.412 31.6687C232.862 31.0691 233.164 30.3751 233.295 29.6412C233.471 28.386 233.544 27.1187 233.512 25.8519V21.4471L233.489 19.7791C233.513 19.0314 233.456 18.2833 233.318 17.5476C233.208 17.0904 232.964 16.6749 232.616 16.3525C232.177 15.9488 231.382 15.6486 230.231 15.4521V14.9534H236.978V27.2057C236.96 28.2869 237.005 29.3683 237.113 30.4444C237.166 30.9796 237.334 31.4974 237.607 31.9634C237.84 32.3458 238.172 32.6609 238.569 32.8768C239.069 33.0953 239.607 33.2142 240.154 33.2265V33.6994L233.841 34.5447Z" fill="black"/>
<path d="M247.912 14.6165C248.119 15.4182 248.23 16.2411 248.241 17.0683V17.431C249.112 16.5327 250.16 15.8195 251.322 15.3354C252.483 14.8513 253.734 14.6066 254.995 14.6165C256.957 14.6165 258.534 15.0667 259.726 15.9671C260.919 16.8674 261.512 18.1306 261.505 19.7564V29.3141C261.481 30.0667 261.543 30.8196 261.69 31.5585C261.801 32.0139 262.049 32.4258 262.401 32.7407C262.83 33.1455 263.617 33.4565 264.767 33.667V34.1398H254.62V33.6832C255.303 33.6265 255.972 33.4545 256.596 33.1747C257.032 32.9145 257.371 32.5225 257.562 32.0573C257.767 31.5587 257.887 31.0301 257.917 30.493C257.983 29.7934 258.02 28.7894 258.02 27.4842V22.6875C258.043 21.4825 257.986 20.2772 257.848 19.0795C257.771 18.4238 257.545 17.7932 257.189 17.2334C256.816 16.6891 256.291 16.2619 255.677 16.0027C254.991 15.7056 254.249 15.5565 253.5 15.5655C252.675 15.5591 251.859 15.7281 251.108 16.061C250.414 16.3545 249.811 16.8199 249.355 17.4116C248.896 18.0136 248.586 18.7121 248.449 19.452C248.272 20.7028 248.199 21.9659 248.232 23.2284V27.6461L248.255 29.3141C248.23 30.0667 248.292 30.8196 248.439 31.5585C248.55 32.0139 248.798 32.4258 249.151 32.7407C249.579 33.1455 250.366 33.4565 251.516 33.667V34.1398H241.369V33.6832C242.053 33.6273 242.721 33.4564 243.346 33.1779C243.781 32.9182 244.12 32.5275 244.311 32.0638C244.516 31.5662 244.636 31.0388 244.667 30.5027C244.737 29.8096 244.771 28.8034 244.769 27.4842V21.9199C244.787 20.8391 244.749 19.7581 244.654 18.6812C244.606 18.1446 244.434 17.6261 244.15 17.1654C243.928 16.7826 243.601 16.4685 243.207 16.2586C242.708 16.0396 242.169 15.9207 241.623 15.9088V15.4294L247.912 14.6165Z" fill="black"/>
<path d="M272.387 14.6167C272.594 15.4184 272.705 16.2413 272.716 17.0684V17.4312C273.589 16.5305 274.64 15.8159 275.806 15.3317C276.971 14.8475 278.225 14.6041 279.49 14.6167C281.447 14.6167 283.023 15.0669 284.218 15.9672C285.412 16.8676 286 18.1307 285.98 19.7566V29.3142C285.954 30.0669 286.016 30.82 286.165 31.5587C286.276 32.0141 286.524 32.426 286.876 32.7409C287.305 33.1457 288.092 33.4566 289.238 33.6672V34.14H279.091V33.6833C279.775 33.6267 280.444 33.4547 281.068 33.1749C281.503 32.9143 281.841 32.5223 282.03 32.0575C282.236 31.5589 282.356 31.0303 282.386 30.4932C282.456 29.7936 282.491 28.7906 282.491 27.4843V22.6877C282.513 21.4827 282.456 20.2775 282.32 19.0797C282.244 18.4236 282.019 17.7927 281.661 17.2336C281.289 16.6879 280.764 16.2603 280.149 16.0029C279.464 15.7054 278.723 15.5563 277.975 15.5656C277.149 15.5593 276.332 15.7283 275.579 16.0612C274.887 16.3548 274.284 16.8202 273.83 17.4117C273.37 18.0132 273.06 18.7119 272.924 19.4522C272.747 20.703 272.674 21.966 272.707 23.2286V27.6463L272.73 29.3142C272.703 30.0669 272.765 30.82 272.914 31.5587C273.025 32.0141 273.273 32.426 273.626 32.7409C274.054 33.1457 274.841 33.4566 275.988 33.6672V34.14H265.841V33.6833C266.524 33.6274 267.193 33.4565 267.818 33.1781C268.253 32.9185 268.591 32.5278 268.783 32.064C268.988 31.5664 269.108 31.0389 269.139 30.5029C269.209 29.8098 269.244 28.8036 269.244 27.4843V21.9201C269.262 20.8393 269.224 19.7583 269.129 18.6813C269.08 18.1445 268.906 17.626 268.621 17.1656C268.4 16.7837 268.075 16.4697 267.682 16.2587C267.183 16.0402 266.644 15.9213 266.098 15.9089V15.4296L272.387 14.6167Z" fill="black"/>
<path d="M295.188 21.8618C295.129 22.6002 295.096 23.1346 295.096 23.4812C295.094 24.7812 295.292 26.074 295.682 27.3159C296.008 28.4433 296.547 29.5002 297.27 30.4316C297.964 31.2734 298.839 31.9531 299.833 32.4214C300.827 32.8897 301.914 33.1349 303.016 33.1392C303.815 33.1446 304.609 33.0074 305.358 32.7344C306.049 32.494 306.677 32.1083 307.2 31.604C307.749 31.0794 308.222 30.2373 308.62 29.0778L309.101 29.2365C308.705 30.9962 307.852 32.3241 306.541 33.2202C305.23 34.1162 303.489 34.5632 301.319 34.561C299.659 34.604 298.008 34.305 296.473 33.6833C295.113 33.0854 293.934 32.1514 293.05 30.9725C291.748 29.2732 291.097 27.182 291.1 24.699C291.1 21.3155 292.332 18.6597 294.796 16.7316C296.529 15.3518 298.697 14.6096 300.927 14.6329C302.092 14.6223 303.247 14.8426 304.324 15.2806C305.649 15.8078 306.775 16.7255 307.548 17.9074C308.32 19.0893 308.702 20.4775 308.64 21.8812L295.188 21.8618ZM305.2 20.9809C305.09 19.4694 304.808 18.311 304.353 17.5056C303.966 16.7933 303.399 16.1909 302.706 15.7567C302.054 15.3356 301.292 15.1105 300.512 15.109C299.194 15.109 298.048 15.666 297.073 16.7802C296.055 17.9686 295.443 19.4415 295.323 20.9906L305.2 20.9809Z" fill="black"/>
<path d="M318.076 18.0887C318.531 17.2508 319.166 16.5203 319.937 15.9478C321.202 15.0613 322.722 14.595 324.276 14.6167C325.271 14.6167 326.029 14.8326 326.549 15.2644C326.772 15.4351 326.952 15.6538 327.076 15.9036C327.199 16.1535 327.262 16.4279 327.261 16.7057C327.267 16.8985 327.233 17.0906 327.16 17.2696C327.087 17.4486 326.976 17.6107 326.836 17.7453C326.691 17.8807 326.519 17.9862 326.332 18.0557C326.145 18.1252 325.945 18.1574 325.745 18.1502C325.485 18.1475 325.228 18.088 324.994 17.9759C324.76 17.8639 324.554 17.7022 324.391 17.5024L323.68 16.7381C323.427 16.463 323.119 16.2434 322.774 16.0938C322.43 15.9442 322.057 15.868 321.68 15.8701C320.639 15.8701 319.828 16.5319 319.249 17.8555C318.669 19.179 318.378 21.0144 318.376 23.3614V27.5718L318.399 29.2851C318.372 30.0377 318.434 30.7908 318.583 31.5296C318.694 31.9849 318.942 32.3969 319.295 32.7117C319.723 33.1166 320.51 33.4275 321.657 33.638V34.1109H311.51V33.6834C312.193 33.6286 312.862 33.4577 313.486 33.1781C313.921 32.9187 314.259 32.5278 314.448 32.064C314.654 31.5664 314.774 31.0389 314.804 30.5029C314.875 29.8098 314.91 28.8036 314.91 27.4843V21.9201C314.928 20.8393 314.889 19.7583 314.794 18.6814C314.749 18.1454 314.578 17.6268 314.297 17.1656C314.075 16.7837 313.75 16.4697 313.358 16.2587C312.859 16.0402 312.32 15.9213 311.773 15.909V15.4296L317.703 14.6167C317.937 15.7602 318.061 16.9225 318.076 18.0887Z" fill="black"/>
<path d="M329.451 34.14V27.7531H329.817C330.143 29.0801 330.687 30.3459 331.428 31.5004C332.603 33.2018 333.977 34.0514 335.549 34.0493C336.46 34.0677 337.346 33.763 338.047 33.191C338.811 32.5605 339.193 31.6655 339.193 30.5061C339.21 29.6101 338.919 28.7347 338.366 28.0219C338.035 27.6218 337.646 27.2725 337.21 26.9855C336.453 26.5008 335.67 26.0564 334.864 25.6544C332.938 24.6439 331.655 23.8007 331.016 23.1249C330.129 22.2328 329.636 21.0331 329.642 19.7857C329.62 18.4878 330.114 17.2327 331.019 16.2878C332.074 15.1737 333.474 14.6166 335.22 14.6166C335.967 14.611 336.707 14.7485 337.401 15.0215L338.182 15.3453C338.391 15.4298 338.614 15.4759 338.841 15.4814C339.13 15.4814 339.407 15.2547 339.667 14.8045H340.125L340.379 19.9282H339.898C339.77 19.3341 339.589 18.7521 339.358 18.189C339.153 17.7306 338.88 17.3048 338.547 16.9259C338.097 16.3723 337.536 15.9149 336.9 15.5818C336.332 15.2725 335.695 15.1056 335.045 15.096C334.637 15.0903 334.231 15.1686 333.855 15.3259C333.479 15.4832 333.14 15.7159 332.861 16.0093C332.565 16.3055 332.332 16.657 332.177 17.043C332.021 17.4291 331.946 17.8419 331.955 18.257C331.957 19.0008 332.248 19.7157 332.769 20.2553C333.485 20.9574 334.339 21.5084 335.279 21.8747L337.704 22.9565C338.982 23.4734 340.103 24.3055 340.959 25.3726C341.683 26.3795 342.049 27.593 342 28.8251C342.023 29.5497 341.896 30.2713 341.628 30.9465C341.36 31.6217 340.955 32.2364 340.438 32.7538C339.842 33.3513 339.126 33.8203 338.335 34.1309C337.545 34.4415 336.697 34.5869 335.846 34.5578C334.792 34.5501 333.749 34.3513 332.769 33.9715C332.11 33.7157 331.691 33.5699 331.553 33.5311C331.38 33.491 331.203 33.4725 331.026 33.476C330.779 33.4671 330.534 33.5257 330.319 33.6452C330.104 33.7646 329.927 33.9404 329.807 34.1529L329.451 34.14Z" fill="black"/>
<path d="M89.8385 55.5969V47.9113H86.8174V47.1372H93.7721V47.9113H90.7477V55.5969H89.8385Z" fill="black"/>
<path d="M98.3317 49.1906C98.8104 49.1812 99.2846 49.2833 99.7154 49.4886C100.114 49.6865 100.439 50.0011 100.648 50.3889C100.887 50.8606 101.001 51.3845 100.977 51.9112V55.5969H100.104V51.9954C100.125 51.7221 100.09 51.4476 100.003 51.1875C99.9149 50.9274 99.7759 50.6868 99.5935 50.4796C99.4041 50.3017 99.1793 50.1641 98.9333 50.0755C98.6872 49.9869 98.4253 49.9492 98.1637 49.9647C97.747 49.9545 97.3345 50.048 96.9645 50.2367C96.6276 50.4153 96.3532 50.6895 96.1771 51.0237C95.9822 51.4073 95.8871 51.8324 95.9004 52.2609V55.5969H95.0273V46.6384H95.9004V51.0011L95.7291 50.6772C95.932 50.2226 96.2786 49.8444 96.7174 49.5987C97.2077 49.3208 97.7659 49.1797 98.3317 49.1906Z" fill="black"/>
<path d="M106.083 55.655C105.467 55.6684 104.857 55.5244 104.314 55.2372C103.814 54.971 103.4 54.5728 103.118 54.0874C102.826 53.5769 102.678 52.9987 102.69 52.413C102.683 51.8319 102.83 51.259 103.118 50.7515C103.382 50.2762 103.773 49.8808 104.248 49.6082C104.738 49.3269 105.296 49.1825 105.863 49.1904C106.429 49.1807 106.988 49.3205 107.48 49.5953C107.951 49.8663 108.336 50.2597 108.594 50.7321C108.872 51.2507 109.011 51.8302 108.999 52.4162C108.999 52.4583 108.999 52.5004 108.999 52.5458C108.996 52.5911 108.996 52.6365 108.999 52.6818H103.398V52.0341H108.548L108.218 52.2867C108.226 51.8588 108.121 51.4362 107.915 51.0592C107.725 50.712 107.443 50.422 107.098 50.2203C106.736 50.0146 106.324 49.9104 105.906 49.9191C105.488 49.913 105.076 50.017 104.713 50.2203C104.363 50.4188 104.078 50.7123 103.893 51.0657C103.69 51.4494 103.588 51.877 103.596 52.3094V52.4681C103.587 52.9137 103.701 53.3535 103.926 53.7409C104.14 54.1054 104.456 54.4029 104.835 54.5992C105.24 54.8122 105.693 54.9234 106.153 54.923C106.529 54.9258 106.903 54.8565 107.253 54.719C107.592 54.581 107.892 54.3656 108.129 54.0907L108.624 54.6445C108.334 54.9847 107.964 55.2503 107.546 55.4186C107.08 55.5956 106.582 55.6761 106.083 55.655Z" fill="black"/>
<path d="M113.99 55.5969V46.6384H114.863V51.1339L114.741 52.4294L114.827 53.7087V55.6196L113.99 55.5969ZM117.321 55.6552C116.787 55.6634 116.261 55.5326 115.796 55.2762C115.339 55.0153 114.969 54.6308 114.728 54.1686C114.45 53.6259 114.315 53.0237 114.333 52.4164C114.314 51.8073 114.452 51.2033 114.735 50.661C114.978 50.2022 115.351 49.8221 115.809 49.5663C116.271 49.3136 116.792 49.1841 117.321 49.1906C117.896 49.1834 118.464 49.3228 118.968 49.5954C119.45 49.86 119.847 50.2515 120.115 50.7258C120.39 51.2477 120.533 51.827 120.533 52.4148C120.533 53.0026 120.39 53.5818 120.115 54.1038C119.848 54.5811 119.451 54.9758 118.968 55.2439C118.466 55.5215 117.897 55.6634 117.321 55.6552ZM117.258 54.8941C117.69 54.8964 118.115 54.7845 118.487 54.5702C118.851 54.3635 119.15 54.062 119.35 53.699C119.556 53.297 119.663 52.8534 119.663 52.4035C119.663 51.9535 119.556 51.5099 119.35 51.1079C119.147 50.7492 118.849 50.4515 118.487 50.2464C118.115 50.0306 117.69 49.9186 117.258 49.9225C116.825 49.9199 116.398 50.0317 116.023 50.2464C115.661 50.4504 115.364 50.7485 115.163 51.1079C114.96 51.5106 114.854 51.954 114.854 52.4035C114.854 52.8529 114.96 53.2963 115.163 53.699C115.361 54.0625 115.659 54.3643 116.023 54.5702C116.399 54.7833 116.825 54.895 117.258 54.8941Z" fill="black"/>
<path d="M125.063 55.655C124.446 55.6684 123.837 55.5244 123.294 55.2372C122.795 54.9714 122.382 54.5744 122.101 54.0907C121.809 53.5801 121.661 53.002 121.673 52.4162C121.66 51.8355 121.802 51.2615 122.085 50.7515C122.348 50.2762 122.739 49.8808 123.215 49.6082C123.704 49.3269 124.262 49.1825 124.829 49.1904C125.395 49.1807 125.954 49.3205 126.446 49.5953C126.917 49.8663 127.302 50.2597 127.56 50.7321C127.838 51.2507 127.977 51.8302 127.965 52.4162C127.965 52.4583 127.965 52.5004 127.965 52.5458C127.965 52.5911 127.965 52.6365 127.965 52.6818H122.335V52.0341H127.497L127.168 52.2867C127.175 51.8588 127.071 51.4362 126.865 51.0592C126.675 50.712 126.392 50.422 126.048 50.2203C125.686 50.0146 125.273 49.9104 124.855 49.9191C124.437 49.913 124.026 50.017 123.663 50.2203C123.312 50.4196 123.026 50.7128 122.839 51.0657C122.639 51.4503 122.538 51.8774 122.546 52.3094V52.4681C122.537 52.9137 122.651 53.3535 122.875 53.7409C123.09 54.1054 123.405 54.4029 123.784 54.5992C124.195 54.8148 124.653 54.9261 125.119 54.923C125.496 54.9258 125.869 54.8565 126.219 54.719C126.558 54.581 126.858 54.3656 127.095 54.0907L127.59 54.6445C127.3 54.9847 126.93 55.2503 126.512 55.4186C126.051 55.5939 125.557 55.6743 125.063 55.655Z" fill="black"/>
<path d="M131.481 55.655C130.968 55.6581 130.458 55.5827 129.969 55.4316C129.562 55.318 129.182 55.1277 128.849 54.8713L129.244 54.1944C129.553 54.4104 129.892 54.5796 130.252 54.6964C130.666 54.8372 131.102 54.9084 131.54 54.9069C131.999 54.9422 132.457 54.843 132.858 54.6219C132.985 54.5401 133.089 54.428 133.16 54.296C133.231 54.164 133.266 54.0165 133.263 53.8672C133.269 53.7647 133.251 53.6622 133.212 53.567C133.173 53.4719 133.113 53.3864 133.036 53.3166C132.863 53.1727 132.659 53.0697 132.44 53.0154C132.169 52.9419 131.894 52.8835 131.616 52.8405C131.313 52.792 131.013 52.7369 130.713 52.6721C130.429 52.6129 130.155 52.5171 129.896 52.3871C129.656 52.2691 129.45 52.0916 129.3 51.8722C129.136 51.6122 129.057 51.3095 129.073 51.0042C129.068 50.6712 129.172 50.3455 129.369 50.0746C129.589 49.7815 129.89 49.5566 130.236 49.4269C130.679 49.2572 131.153 49.1768 131.629 49.1905C132.053 49.1912 132.475 49.2467 132.884 49.3556C133.25 49.4411 133.598 49.5856 133.916 49.7831L133.533 50.473C133.254 50.282 132.943 50.1406 132.614 50.0552C132.292 49.9716 131.96 49.9291 131.626 49.9289C131.177 49.8952 130.728 49.9981 130.341 50.2236C130.214 50.3061 130.11 50.4182 130.038 50.5499C129.967 50.6816 129.929 50.8288 129.929 50.9783C129.923 51.0837 129.94 51.1893 129.98 51.2876C130.019 51.386 130.079 51.4749 130.157 51.5483C130.331 51.6981 130.537 51.8086 130.759 51.8722C131.029 51.9528 131.304 52.0144 131.583 52.0568C131.883 52.1053 132.183 52.1636 132.479 52.2349C132.763 52.2972 133.039 52.3895 133.303 52.5102C133.545 52.62 133.753 52.791 133.906 53.0057C134.068 53.2568 134.147 53.5508 134.133 53.8478C134.144 54.1972 134.033 54.5397 133.82 54.8194C133.584 55.1093 133.268 55.3272 132.911 55.4478C132.451 55.6002 131.966 55.6704 131.481 55.655Z" fill="black"/>
<path d="M134.745 49.9645V49.252H138.731V49.9645H134.745ZM137.793 55.6551C137.538 55.671 137.283 55.6365 137.043 55.5536C136.802 55.4707 136.581 55.3411 136.392 55.1725C136.221 54.9888 136.09 54.7731 136.005 54.5383C135.921 54.3034 135.886 54.0543 135.901 53.8057V47.8496H136.775V53.7636C136.754 54.0754 136.856 54.383 137.061 54.6219C137.17 54.7274 137.3 54.8091 137.443 54.8616C137.586 54.9141 137.739 54.9361 137.891 54.9263C138.241 54.9389 138.582 54.8235 138.85 54.6025L139.156 55.2178C138.976 55.3683 138.765 55.4787 138.537 55.5417C138.293 55.6161 138.038 55.6543 137.783 55.6551H137.793Z" fill="black"/>
<path d="M145.268 55.5967L142.837 49.252H143.67L145.884 55.1368H145.502L147.775 49.252H148.527L150.777 55.1368H150.395L152.645 49.252H153.442L150.997 55.5967H150.174L148.009 50.0616H148.27L146.092 55.5967H145.268Z" fill="black"/>
<path d="M156.38 55.6551C155.947 55.6653 155.517 55.5847 155.118 55.4186C154.788 55.2847 154.504 55.0598 154.301 54.7709C154.109 54.4826 154.01 54.1438 154.018 53.7992C154.015 53.4834 154.098 53.1727 154.259 52.8989C154.447 52.6082 154.722 52.3819 155.046 52.2511C155.513 52.0681 156.013 51.9842 156.515 52.005H158.739V52.6527H156.538C155.916 52.6527 155.484 52.7628 155.244 52.9766C155.124 53.0846 155.029 53.2169 154.967 53.3643C154.904 53.5118 154.875 53.6708 154.882 53.8304C154.888 53.99 154.929 54.1464 155.003 54.2887C155.077 54.4309 155.182 54.5557 155.309 54.6543C155.663 54.8916 156.088 55.0056 156.515 54.9782C156.962 54.9918 157.403 54.8794 157.787 54.6543C158.148 54.4228 158.422 54.0816 158.568 53.6827L158.762 54.2753C158.599 54.6938 158.299 55.047 157.909 55.2794C157.446 55.544 156.916 55.6743 156.38 55.6551ZM158.604 55.5968V54.1944L158.568 53.9644V51.6196C158.583 51.3922 158.549 51.1642 158.47 50.9501C158.391 50.736 158.267 50.5405 158.106 50.3759C157.725 50.0601 157.233 49.9043 156.736 49.9419C156.329 49.9398 155.925 50.0088 155.543 50.1459C155.192 50.2678 154.867 50.4523 154.585 50.69L154.193 50.0423C154.539 49.7527 154.94 49.5326 155.372 49.3945C155.84 49.2441 156.329 49.1686 156.822 49.171C157.523 49.1262 158.215 49.345 158.759 49.7832C159.213 50.1891 159.441 50.8066 159.441 51.6357V55.5773L158.604 55.5968Z" fill="black"/>
<path d="M161.737 58C161.442 58.0012 161.149 57.9519 160.871 57.8543C160.606 57.7638 160.365 57.6155 160.166 57.4203L160.571 56.7725C160.728 56.9198 160.908 57.0402 161.105 57.1288C161.313 57.2168 161.538 57.2598 161.764 57.2551C162.032 57.261 162.294 57.179 162.508 57.0219C162.768 56.7934 162.972 56.5099 163.105 56.1928L163.523 55.2633L163.619 55.1305L166.274 49.2456H167.134L163.889 56.3547C163.743 56.7071 163.541 57.0349 163.293 57.3264C163.101 57.5483 162.86 57.7235 162.587 57.8381C162.317 57.9455 162.029 58.0005 161.737 58ZM163.461 55.775L160.495 49.2521H161.405L164.04 55.0819L163.461 55.775Z" fill="black"/>
<path d="M170.563 49.9645V49.252H174.556V49.9645H170.563ZM173.621 55.6551C173.366 55.6712 173.111 55.6368 172.871 55.5539C172.63 55.471 172.409 55.3413 172.221 55.1725C172.049 54.9892 171.917 54.7736 171.832 54.5386C171.748 54.3037 171.713 54.0543 171.73 53.8057V47.8496H172.6V53.7636C172.579 54.0758 172.683 54.3835 172.889 54.6219C172.998 54.7276 173.128 54.8094 173.271 54.8619C173.414 54.9144 173.567 54.9364 173.72 54.9263C174.069 54.9389 174.411 54.8235 174.678 54.6025L174.985 55.2178C174.804 55.3683 174.593 55.4787 174.365 55.5417C174.124 55.6149 173.873 55.6531 173.621 55.6551Z" fill="black"/>
<path d="M178.958 55.655C178.371 55.6641 177.792 55.52 177.281 55.2372C176.79 54.967 176.384 54.5706 176.105 54.0907C175.825 53.5748 175.679 52.9992 175.679 52.4146C175.679 51.83 175.825 51.2544 176.105 50.7386C176.385 50.2645 176.789 49.8722 177.274 49.6017C177.789 49.3224 178.37 49.1806 178.958 49.1904C179.552 49.1807 180.139 49.3224 180.661 49.6017C181.148 49.8695 181.551 50.2625 181.827 50.7386C182.107 51.2544 182.253 51.83 182.253 52.4146C182.253 52.9992 182.107 53.5748 181.827 54.0907C181.552 54.5719 181.146 54.9688 180.655 55.2372C180.136 55.5201 179.551 55.6642 178.958 55.655ZM178.958 54.8939C179.394 54.8966 179.823 54.7848 180.2 54.57C180.562 54.3639 180.857 54.062 181.053 53.6988C181.256 53.2961 181.362 52.8528 181.362 52.4033C181.362 51.9538 181.256 51.5104 181.053 51.1078C180.855 50.7487 180.56 50.4505 180.2 50.2463C179.823 50.0444 179.4 49.9387 178.971 49.9387C178.542 49.9387 178.119 50.0444 177.742 50.2463C177.38 50.4502 177.083 50.7483 176.882 51.1078C176.675 51.5091 176.566 51.953 176.566 52.4033C176.566 52.8536 176.675 53.2975 176.882 53.6988C177.081 54.0623 177.379 54.3641 177.742 54.57C178.111 54.7831 178.53 54.895 178.958 54.8939Z" fill="black"/>
<path d="M189.823 55.6552C189.247 55.6637 188.678 55.5218 188.176 55.2439C187.693 54.9751 187.295 54.5806 187.026 54.1038C186.751 53.5818 186.607 53.0026 186.607 52.4148C186.607 51.827 186.751 51.2477 187.026 50.7258C187.296 50.2525 187.694 49.8614 188.176 49.5954C188.68 49.3224 189.247 49.1829 189.823 49.1906C190.354 49.1829 190.878 49.3124 191.342 49.5663C191.795 49.8251 192.165 50.2045 192.409 50.661C192.691 51.2037 192.828 51.8076 192.808 52.4164C192.827 53.0234 192.692 53.6256 192.416 54.1686C192.175 54.6292 191.806 55.0132 191.352 55.2762C190.886 55.5342 190.358 55.665 189.823 55.6552ZM189.882 54.8941C190.316 54.8959 190.742 54.7841 191.118 54.5702C191.483 54.3655 191.782 54.0635 191.981 53.699C192.184 53.2963 192.29 52.8529 192.29 52.4035C192.29 51.954 192.184 51.5106 191.981 51.1079C191.78 50.7476 191.481 50.4493 191.118 50.2464C190.743 50.031 190.316 49.9191 189.882 49.9225C189.455 49.9208 189.035 50.0327 188.667 50.2464C188.306 50.4519 188.009 50.7497 187.807 51.1079C187.599 51.5093 187.491 51.9532 187.491 52.4035C187.491 52.8537 187.599 53.2976 187.807 53.699C188.007 54.0608 188.305 54.362 188.667 54.5702C189.035 54.7825 189.455 54.8944 189.882 54.8941ZM192.317 55.5969V53.686L192.403 52.4067L192.281 51.1112V46.6384H193.154V55.6066L192.317 55.5969Z" fill="black"/>
<path d="M195.589 55.5969V49.2522H196.422V50.9784L196.337 50.6772C196.5 50.2162 196.821 49.8256 197.246 49.5728C197.728 49.3033 198.277 49.171 198.831 49.1906V50.0262H198.735H198.636C198.341 50.0102 198.046 50.0563 197.771 50.1613C197.495 50.2663 197.245 50.4278 197.038 50.6351C196.625 51.1189 196.417 51.7406 196.459 52.3711V55.6099L195.589 55.5969Z" fill="black"/>
<path d="M200.86 47.8497C200.777 47.851 200.694 47.836 200.617 47.8057C200.54 47.7754 200.469 47.7303 200.41 47.6731C200.35 47.6159 200.303 47.5476 200.271 47.4723C200.238 47.397 200.221 47.3161 200.221 47.2343C200.22 47.1539 200.236 47.0742 200.267 47.0001C200.299 46.926 200.346 46.8591 200.405 46.8035C200.465 46.7459 200.536 46.7008 200.614 46.6707C200.693 46.6407 200.776 46.6264 200.86 46.6287C200.943 46.6265 201.027 46.6405 201.105 46.67C201.183 46.6994 201.254 46.7437 201.315 46.8003C201.374 46.8533 201.422 46.9184 201.453 46.9911C201.485 47.0637 201.501 47.1423 201.499 47.2213C201.501 47.3038 201.487 47.3858 201.456 47.4626C201.426 47.5394 201.38 47.6093 201.321 47.6683C201.262 47.7288 201.19 47.7763 201.11 47.8076C201.031 47.8388 200.945 47.8532 200.86 47.8497ZM200.418 55.5968V49.2521H201.295V55.5968H200.418Z" fill="black"/>
<path d="M205.383 55.5967L202.517 49.252H203.429L206.065 55.1368H205.633L208.302 49.252H209.162L206.286 55.5967H205.383Z" fill="black"/>
<path d="M212.941 55.655C212.324 55.6684 211.715 55.5244 211.172 55.2372C210.674 54.9714 210.261 54.5744 209.979 54.0907C209.686 53.5804 209.537 53.0022 209.547 52.4162C209.536 51.8357 209.678 51.2621 209.959 50.7515C210.225 50.2768 210.617 49.8817 211.093 49.6082C211.582 49.3269 212.14 49.1825 212.707 49.1904C213.273 49.1807 213.832 49.3205 214.325 49.5953C214.795 49.8655 215.179 50.2591 215.435 50.7321C215.713 51.2507 215.852 51.8302 215.84 52.4162C215.84 52.4583 215.84 52.5004 215.84 52.5458C215.837 52.5911 215.837 52.6365 215.84 52.6818H210.239V52.0341H215.362L215.016 52.2867C215.025 51.8591 214.922 51.4365 214.717 51.0592C214.526 50.7126 214.243 50.4229 213.9 50.2203C213.538 50.0146 213.125 49.9104 212.707 49.9191C212.289 49.913 211.877 50.017 211.514 50.2203C211.164 50.4196 210.878 50.7128 210.691 51.0657C210.491 51.4503 210.39 51.8774 210.397 52.3094V52.4681C210.389 52.9137 210.503 53.3535 210.727 53.7409C210.942 54.1054 211.257 54.4029 211.636 54.5992C212.042 54.8123 212.494 54.9236 212.954 54.923C213.331 54.9264 213.705 54.8571 214.054 54.719C214.395 54.5824 214.697 54.3668 214.934 54.0907L215.425 54.6445C215.136 54.9845 214.768 55.2502 214.351 55.4186C213.902 55.5887 213.422 55.6691 212.941 55.655Z" fill="black"/>
</g>
<defs>
<clipPath id="clip0_28707_44518">
<rect width="342" height="58" fill="white"/>
</clipPath>
</defs>
</svg>
