<svg width="343" height="58" viewBox="0 0 343 58" fill="none" xmlns="http://www.w3.org/2000/svg">
<g clip-path="url(#clip0_28707_44517)">
<path d="M25.0582 29.2268C27.7645 29.2268 29.9583 27.0764 29.9583 24.4237C29.9583 21.771 27.7645 19.6206 25.0582 19.6206C22.352 19.6206 20.1582 21.771 20.1582 24.4237C20.1582 27.0764 22.352 29.2268 25.0582 29.2268Z" fill="url(#paint0_linear_28707_44517)"/>
<path d="M25.0588 40.3194C26.6209 40.3194 27.8872 39.0782 27.8872 37.547C27.8872 36.0159 26.6209 34.7747 25.0588 34.7747C23.4968 34.7747 22.2305 36.0159 22.2305 37.547C22.2305 39.0782 23.4968 40.3194 25.0588 40.3194Z" fill="url(#paint1_linear_28707_44517)"/>
<path d="M17.3303 17.4537C18.8924 17.4537 20.1586 16.2125 20.1586 14.6813C20.1586 13.1502 18.8924 11.9089 17.3303 11.9089C15.7682 11.9089 14.502 13.1502 14.502 14.6813C14.502 16.2125 15.7682 17.4537 17.3303 17.4537Z" fill="url(#paint2_linear_28707_44517)"/>
<path d="M33.0119 17.4537C34.574 17.4537 35.8403 16.2125 35.8403 14.6813C35.8403 13.1502 34.574 11.9089 33.0119 11.9089C31.4499 11.9089 30.1836 13.1502 30.1836 14.6813C30.1836 16.2125 31.4499 17.4537 33.0119 17.4537Z" fill="url(#paint3_linear_28707_44517)"/>
<path d="M37.552 31.9991C39.114 31.9991 40.3803 30.7579 40.3803 29.2267C40.3803 27.6956 39.114 26.4543 37.552 26.4543C35.9899 26.4543 34.7236 27.6956 34.7236 29.2267C34.7236 30.7579 35.9899 31.9991 37.552 31.9991Z" fill="url(#paint4_linear_28707_44517)"/>
<path d="M13.1203 31.9991C14.6824 31.9991 15.9487 30.7579 15.9487 29.2267C15.9487 27.6956 14.6824 26.4543 13.1203 26.4543C11.5583 26.4543 10.292 27.6956 10.292 29.2267C10.292 30.7579 11.5583 31.9991 13.1203 31.9991Z" fill="url(#paint5_linear_28707_44517)"/>
<path d="M25.0589 51.6843C26.3928 51.6843 27.4742 50.6243 27.4742 49.3168C27.4742 48.0092 26.3928 46.9492 25.0589 46.9492C23.7249 46.9492 22.6436 48.0092 22.6436 49.3168C22.6436 50.6243 23.7249 51.6843 25.0589 51.6843Z" fill="url(#paint6_linear_28707_44517)"/>
<path d="M25.0589 8.2556C26.3928 8.2556 27.4742 7.19561 27.4742 5.88805C27.4742 4.58049 26.3928 3.52051 25.0589 3.52051C23.7249 3.52051 22.6436 4.58049 22.6436 5.88805C22.6436 7.19561 23.7249 8.2556 25.0589 8.2556Z" fill="url(#paint7_linear_28707_44517)"/>
<path d="M43.5549 21.0554C44.5458 21.0554 45.349 20.268 45.349 19.2967C45.349 18.3255 44.5458 17.5381 43.5549 17.5381C42.564 17.5381 41.7607 18.3255 41.7607 19.2967C41.7607 20.268 42.564 21.0554 43.5549 21.0554Z" fill="url(#paint8_linear_28707_44517)"/>
<path d="M10.7054 8.2556C12.0393 8.2556 13.1207 7.19561 13.1207 5.88805C13.1207 4.58049 12.0393 3.52051 10.7054 3.52051C9.37142 3.52051 8.29004 4.58049 8.29004 5.88805C8.29004 7.19561 9.37142 8.2556 10.7054 8.2556Z" fill="url(#paint9_linear_28707_44517)"/>
<path d="M5.87438 21.3793C6.98023 21.3793 7.87669 20.5005 7.87669 19.4166C7.87669 18.3326 6.98023 17.4539 5.87438 17.4539C4.76854 17.4539 3.87207 18.3326 3.87207 19.4166C3.87207 20.5005 4.76854 21.3793 5.87438 21.3793Z" fill="url(#paint10_linear_28707_44517)"/>
<path d="M1.78424 34.4378C2.76965 34.4378 3.56848 33.6548 3.56848 32.6889C3.56848 31.723 2.76965 30.9399 1.78424 30.9399C0.798831 30.9399 0 31.723 0 32.6889C0 33.6548 0.798831 34.4378 1.78424 34.4378Z" fill="url(#paint11_linear_28707_44517)"/>
<path d="M36.3394 43.024C37.5128 43.024 38.464 42.0916 38.464 40.9414C38.464 39.7913 37.5128 38.8589 36.3394 38.8589C35.166 38.8589 34.2148 39.7913 34.2148 40.9414C34.2148 42.0916 35.166 43.024 36.3394 43.024Z" fill="url(#paint12_linear_28707_44517)"/>
<path d="M48.059 34.4152C49.0316 34.4152 49.8201 33.6423 49.8201 32.6889C49.8201 31.7355 49.0316 30.9626 48.059 30.9626C47.0863 30.9626 46.2979 31.7355 46.2979 32.6889C46.2979 33.6423 47.0863 34.4152 48.059 34.4152Z" fill="url(#paint13_linear_28707_44517)"/>
<path d="M13.1207 43.024C14.294 43.024 15.2452 42.0916 15.2452 40.9414C15.2452 39.7913 14.294 38.8589 13.1207 38.8589C11.9473 38.8589 10.9961 39.7913 10.9961 40.9414C10.9961 42.0916 11.9473 43.024 13.1207 43.024Z" fill="url(#paint14_linear_28707_44517)"/>
<path d="M39.4153 8.2556C40.7493 8.2556 41.8307 7.19561 41.8307 5.88805C41.8307 4.58049 40.7493 3.52051 39.4153 3.52051C38.0814 3.52051 37 4.58049 37 5.88805C37 7.19561 38.0814 8.2556 39.4153 8.2556Z" fill="url(#paint15_linear_28707_44517)"/>
<path d="M68.865 0C69.3078 18.461 69.3111 37.1326 68.865 55.5936C68.4223 37.1326 68.4256 18.461 68.865 0Z" fill="#CBB26A"/>
<path d="M98.0278 19.0633V27.0534C97.9932 28.1983 98.0819 29.3436 98.2922 30.4703C98.4417 31.1619 98.7849 31.799 99.2834 32.3099C99.6863 32.7242 100.178 33.0451 100.724 33.2492C101.418 33.4783 102.143 33.6039 102.875 33.6216V34.1398H88.1484V33.6216C88.8815 33.6039 89.6077 33.4783 90.3027 33.2492C90.8473 33.045 91.3383 32.7241 91.74 32.3099C92.2445 31.8084 92.589 31.1736 92.7313 30.4832C92.933 29.3512 93.0182 28.2021 92.9857 27.0534V10.419C93.0185 9.26919 92.9332 8.11904 92.7313 6.98592C92.5875 6.29606 92.2433 5.66169 91.74 5.15925C91.3423 4.73223 90.8444 4.40654 90.2895 4.21029C89.5969 3.99127 88.8759 3.87022 88.1484 3.85079V3.32935H99.2471C101.104 3.32935 102.327 3.32935 102.908 3.35202C105.287 3.45782 107.153 3.77414 108.505 4.30098C109.932 4.83214 111.163 5.77226 112.037 6.99888C112.884 8.22718 113.322 9.68192 113.293 11.1639C113.328 12.2479 113.1 13.3245 112.628 14.3052C112.155 15.286 111.453 16.143 110.577 16.8059C110.018 17.2314 109.402 17.5801 108.746 17.8423C107.876 18.1733 106.979 18.4301 106.064 18.6099C106.81 18.8835 107.503 19.2812 108.112 19.7856C108.492 20.132 108.819 20.5314 109.08 20.971C109.371 21.4438 109.812 22.2827 110.402 23.4875C111.765 26.2404 112.797 28.2528 113.498 29.5246C114.002 30.4938 114.591 31.4182 115.259 32.2872C115.56 32.6819 115.94 33.0125 116.376 33.2589C116.845 33.467 117.349 33.5899 117.863 33.6216V34.1398H110.207C109.824 33.3107 109.579 32.786 109.47 32.5593L107.861 28.9707C106.994 27.0155 106.017 25.1093 104.933 23.2608C103.953 21.622 103.056 20.5013 102.241 19.8989C101.845 19.6037 101.397 19.384 100.919 19.2512C100.346 19.1117 99.7576 19.0474 99.1678 19.0601L98.0278 19.0633ZM98.0278 18.5645H98.9034C100.807 18.5645 102.169 18.4566 102.991 18.2407C103.86 18.0054 104.655 17.5599 105.304 16.9452C106.087 16.2305 106.708 15.361 107.123 14.394C107.539 13.427 107.741 12.3846 107.716 11.3356C107.723 10.1822 107.483 9.04022 107.012 7.98347C106.579 6.98229 105.912 6.09477 105.066 5.39245C104.39 4.86446 103.598 4.49748 102.753 4.32041C101.502 4.07813 100.228 3.96954 98.953 3.99653H98.0113L98.0278 18.5645Z" fill="url(#paint16_linear_28707_44517)"/>
<path d="M118.949 24.6148C118.949 22.1749 119.871 20.0006 121.715 18.0919C123.955 15.7773 126.634 14.6189 129.75 14.6167C132.867 14.6145 135.545 15.7729 137.783 18.0919C139.622 20.0179 140.543 22.1998 140.545 24.6375C140.549 27.0329 139.61 29.3374 137.922 31.0697C135.772 33.3886 133.055 34.5471 129.77 34.5449C128.232 34.582 126.703 34.2903 125.291 33.6902C123.879 33.0901 122.617 32.1959 121.593 31.0697C120.76 30.1867 120.101 29.1614 119.646 28.0447C119.192 26.9557 118.955 25.7913 118.949 24.6148ZM123.142 24.3557C123.142 26.9683 123.74 29.1847 124.936 31.0049C126.289 33.0345 127.941 34.0494 129.893 34.0494C130.745 34.0417 131.58 33.8077 132.308 33.3725C133.118 32.8967 133.811 32.2507 134.337 31.481C134.999 30.5111 135.493 29.4409 135.8 28.3135C136.155 27.1111 136.337 25.8663 136.342 24.6148C136.338 23.3493 136.14 22.0915 135.754 20.8837C135.413 19.7271 134.88 18.633 134.178 17.645C132.92 15.9457 131.378 15.096 129.552 15.096C127.819 15.096 126.322 15.9899 125.062 17.7777C123.802 19.5656 123.164 21.7582 123.149 24.3557H123.142Z" fill="url(#paint17_linear_28707_44517)"/>
<path d="M162.293 31.9506L162.683 32.1773C162.133 33.7556 160.866 34.5448 158.883 34.5448C157.913 34.5815 156.957 34.3038 156.164 33.7546C155.556 33.2537 155.054 32.6408 154.687 31.9506C153.972 32.6172 153.192 33.2138 152.358 33.7319C151.288 34.292 150.088 34.572 148.875 34.5448C147.184 34.5448 145.845 34.1465 144.851 33.3497C144.363 32.9605 143.974 32.4651 143.716 31.9028C143.458 31.3406 143.337 30.727 143.364 30.1109C143.347 29.5352 143.447 28.9619 143.656 28.4239C143.866 27.8859 144.182 27.3938 144.586 26.9758C145.042 26.5114 145.581 26.1327 146.176 25.8584C147.015 25.4999 147.885 25.2159 148.776 25.0099C150.098 24.686 151.089 24.401 151.75 24.1775C152.322 23.9844 152.861 23.7105 153.352 23.3646C153.805 23.0641 154.157 22.6393 154.363 22.1436C154.574 21.5173 154.668 20.8591 154.641 20.2003C154.641 18.4427 154.303 17.1558 153.627 16.3397C153.308 15.9547 152.903 15.6467 152.444 15.4393C151.973 15.2158 151.457 15.0995 150.934 15.0992C150.338 15.0905 149.753 15.2551 149.252 15.5721C148.759 15.8921 148.375 16.3488 148.148 16.8838L147.573 18.1793C147.451 18.5066 147.224 18.7865 146.926 18.9773C146.629 19.1681 146.276 19.2597 145.921 19.2384C145.678 19.2463 145.435 19.2055 145.208 19.1187C144.98 19.0318 144.774 18.9007 144.6 18.7331C144.429 18.5724 144.293 18.3793 144.2 18.1655C144.107 17.9517 144.06 17.7217 144.061 17.4894C144.061 16.7229 144.612 16.0752 145.713 15.5462C146.426 15.2388 147.174 15.0148 147.94 14.879C148.794 14.7096 149.663 14.6229 150.534 14.6199C151.536 14.626 152.534 14.7466 153.508 14.9794C154.407 15.1738 155.276 15.4853 156.091 15.9057C156.537 16.1234 156.932 16.4279 157.253 16.8004C157.574 17.173 157.814 17.6058 157.958 18.0724C158.11 18.8185 158.172 19.5794 158.143 20.3396V28.6988C158.11 29.6654 158.172 30.6329 158.328 31.5878C158.591 32.6566 159.219 33.1964 160.215 33.2072C160.604 33.2291 160.991 33.1427 161.332 32.9578C161.711 32.681 162.037 32.3398 162.293 31.9506ZM154.671 23.0569C153.827 23.7454 152.911 24.3436 151.938 24.8414C151.142 25.2414 150.37 25.6859 149.625 26.1726C149.188 26.4812 148.793 26.8449 148.452 27.2543C147.736 28.1133 147.351 29.1924 147.365 30.302C147.33 31.1948 147.627 32.0697 148.201 32.7635C148.456 33.0738 148.78 33.3227 149.148 33.4911C149.517 33.6596 149.919 33.743 150.326 33.7351C151.09 33.7309 151.833 33.4906 152.45 33.0485C153.126 32.5877 153.654 31.9487 153.974 31.2056C154.447 30.1995 154.684 28.7399 154.684 26.8268L154.671 23.0569Z" fill="url(#paint18_linear_28707_44517)"/>
<path d="M179.415 34.9076C179.257 34.1193 179.179 33.3175 179.184 32.5141C178.189 33.1691 177.11 33.6929 175.975 34.072C174.93 34.3928 173.84 34.5523 172.744 34.5448C170.563 34.5967 168.438 33.8666 166.767 32.4914C165.697 31.604 164.861 30.4777 164.328 29.2073C163.752 27.8378 163.463 26.3683 163.479 24.8868C163.464 23.3096 163.777 21.7459 164.398 20.291C164.97 18.9429 165.852 17.7425 166.975 16.7834C168.713 15.3421 170.927 14.5717 173.203 14.6166C174.218 14.5938 175.227 14.762 176.177 15.1122C177.225 15.5779 178.2 16.1863 179.075 16.9194V8.57308C179.075 6.94074 178.796 5.76398 178.239 5.04282C177.681 4.32165 176.763 3.96214 175.483 3.9643V3.42019L182.551 2.54248V28.6632C182.551 30.3603 182.827 31.5695 183.38 32.2906C183.932 33.0129 184.847 33.3724 186.119 33.3724V33.9359L179.415 34.9076ZM179.085 24.388C179.119 22.8147 179.026 21.2411 178.807 19.6821C178.674 18.7669 178.335 17.8921 177.816 17.1202C177.388 16.5364 176.821 16.0638 176.164 15.7437C175.501 15.406 174.766 15.2283 174.019 15.2255C172.383 15.2255 170.969 15.9812 169.777 17.4927C169.021 18.4644 168.451 19.5615 168.092 20.7314C167.686 21.9796 167.481 23.2821 167.484 24.5921C167.482 25.8802 167.674 27.1616 168.055 28.3944C168.389 29.5371 168.916 30.6166 169.615 31.5878C170.763 33.123 172.169 33.8906 173.834 33.8906C174.631 33.8903 175.414 33.6884 176.108 33.3044C176.82 32.9192 177.419 32.3617 177.849 31.685C178.345 30.8634 178.671 29.9545 178.81 29.0098C179.032 27.4792 179.129 25.9337 179.101 24.388H179.085Z" fill="url(#paint19_linear_28707_44517)"/>
<path d="M197.796 19.0633V27.0534C197.762 28.1984 197.852 29.3437 198.064 30.4703C198.195 31.0954 198.485 31.6778 198.907 32.1636C199.33 32.6494 199.87 33.0228 200.479 33.2492C201.174 33.4783 201.9 33.6039 202.633 33.6216V34.1398H187.92V33.6216C188.653 33.6036 189.379 33.478 190.074 33.2492C190.618 33.0442 191.109 32.7234 191.512 32.3099C192.016 31.8084 192.36 31.1736 192.503 30.4832C192.703 29.351 192.787 28.202 192.754 27.0534V10.419C192.787 9.26931 192.703 8.1192 192.503 6.98592C192.359 6.29606 192.015 5.66169 191.512 5.15925C191.113 4.73322 190.615 4.4077 190.061 4.21029C189.368 3.99127 188.647 3.87022 187.92 3.85079V3.32935H199.019C200.875 3.32935 202.095 3.32935 202.68 3.35202C205.059 3.45782 206.923 3.77414 208.273 4.30098C209.696 4.83488 210.923 5.77463 211.796 6.99888C212.642 8.22718 213.081 9.68192 213.051 11.1639C213.086 12.2482 212.858 13.3252 212.385 14.3061C211.912 15.2869 211.209 16.1437 210.332 16.8059C209.773 17.232 209.157 17.5808 208.501 17.8423C207.641 18.1719 206.753 18.4287 205.848 18.6099C206.595 18.8841 207.288 19.2818 207.897 19.7856C208.276 20.1327 208.602 20.532 208.865 20.971C209.156 21.4438 209.596 22.2827 210.187 23.4875C211.552 26.2404 212.584 28.2528 213.283 29.5246C213.785 30.4945 214.375 31.419 215.044 32.2872C215.344 32.6826 215.724 33.0133 216.16 33.2589C216.629 33.4674 217.133 33.5904 217.647 33.6216V34.1398H209.978C209.595 33.3107 209.351 32.786 209.242 32.5593L207.629 28.9707C206.762 27.0163 205.786 25.11 204.705 23.2608C203.725 21.622 202.827 20.5013 202.012 19.8989C201.616 19.6049 201.168 19.3853 200.69 19.2512C200.118 19.1117 199.529 19.0474 198.939 19.0601L197.796 19.0633ZM197.796 18.5645H198.672C200.575 18.5645 201.937 18.4566 202.759 18.2407C203.628 18.005 204.423 17.5596 205.072 16.9452C205.858 16.2315 206.481 15.3626 206.9 14.3957C207.318 13.4287 207.523 12.3858 207.5 11.3356C207.509 10.1825 207.27 9.04043 206.8 7.98347C206.367 6.98229 205.7 6.09477 204.854 5.39245C204.178 4.86446 203.386 4.49748 202.541 4.32041C201.29 4.07831 200.016 3.96972 198.741 3.99653H197.796V18.5645Z" fill="url(#paint20_linear_28707_44517)"/>
<path d="M234.525 34.5447C234.323 33.6186 234.222 32.674 234.224 31.727C233.345 32.6278 232.286 33.3425 231.114 33.8271C229.941 34.3117 228.68 34.5559 227.408 34.5447C225.489 34.5447 223.947 34.087 222.782 33.1715C221.617 32.256 221.049 30.9778 221.077 29.3368V21.4925L221.047 19.7791C221.072 19.0308 221.01 18.2822 220.862 17.5476C220.748 17.095 220.509 16.6818 220.172 16.3525C219.726 15.9477 218.93 15.6465 217.776 15.4521V14.9534H224.547V26.396C224.524 27.5859 224.582 28.776 224.718 29.9586C224.798 30.6295 225.014 31.278 225.353 31.8663C225.71 32.3943 226.211 32.813 226.8 33.0743C227.461 33.374 228.183 33.5245 228.911 33.5148C229.742 33.5205 230.565 33.3515 231.323 33.0193C232.023 32.7273 232.633 32.2605 233.091 31.6655C233.542 31.0659 233.845 30.3718 233.977 29.638C234.154 28.3827 234.227 27.1154 234.195 25.8486V21.4471L234.172 19.7791C234.196 19.0314 234.138 18.2833 234 17.5476C233.889 17.0904 233.645 16.6749 233.296 16.3525C232.855 15.9488 232.058 15.6486 230.904 15.4521V14.9534H237.671V27.2057C237.653 28.2869 237.698 29.3683 237.806 30.4444C237.859 30.9796 238.028 31.4974 238.302 31.9634C238.536 32.3458 238.869 32.6609 239.267 32.8768C239.767 33.0953 240.308 33.2142 240.856 33.2265V33.6994L234.525 34.5447Z" fill="url(#paint21_linear_28707_44517)"/>
<path d="M248.637 14.6165C248.845 15.4182 248.956 16.2411 248.968 17.0683V17.431C249.84 16.5327 250.892 15.8195 252.057 15.3354C253.222 14.8513 254.476 14.6066 255.741 14.6165C257.708 14.6165 259.289 15.0667 260.483 15.9671C261.676 16.8674 262.272 18.1306 262.27 19.7564V29.3141C262.244 30.0667 262.306 30.8198 262.455 31.5585C262.567 32.0139 262.815 32.4258 263.169 32.7407C263.598 33.1455 264.388 33.4565 265.541 33.6637V34.1398H255.364V33.6637C256.05 33.6078 256.72 33.4369 257.347 33.1585C257.783 32.8972 258.123 32.5055 258.315 32.0411C258.519 31.5419 258.64 31.0137 258.672 30.4768C258.738 29.7772 258.774 28.7732 258.774 27.4647V22.6875C258.796 21.4825 258.739 20.2773 258.603 19.0795C258.525 18.4238 258.299 17.7932 257.942 17.2334C257.567 16.6891 257.041 16.2619 256.425 16.0027C255.737 15.7056 254.993 15.5565 254.241 15.5655C253.414 15.5591 252.596 15.7281 251.842 16.061C251.147 16.3545 250.541 16.8199 250.084 17.4116C249.625 18.0136 249.313 18.7121 249.176 19.452C248.998 20.7028 248.925 21.9659 248.958 23.2284V27.6461L248.981 29.3141C248.956 30.0667 249.018 30.8196 249.166 31.5585C249.277 32.0139 249.526 32.4258 249.88 32.7407C250.309 33.1455 251.099 33.4565 252.252 33.6637V34.1398H242.075V33.6637C242.761 33.61 243.431 33.4401 244.058 33.1617C244.491 32.906 244.829 32.5213 245.022 32.0638C245.231 31.5672 245.352 31.0392 245.379 30.5027C245.449 29.8064 245.485 28.8023 245.485 27.4842V21.9199C245.503 20.8391 245.465 19.7581 245.369 18.6812C245.322 18.1446 245.149 17.6261 244.864 17.1654C244.64 16.7831 244.313 16.4683 243.919 16.2553C243.417 16.0392 242.877 15.9215 242.33 15.9088V15.4294L248.637 14.6165Z" fill="url(#paint22_linear_28707_44517)"/>
<path d="M273.183 14.6167C273.391 15.4184 273.502 16.2413 273.514 17.0684V17.4312C274.389 16.5305 275.443 15.8159 276.612 15.3317C277.781 14.8475 279.039 14.6041 280.307 14.6167C282.27 14.6167 283.85 15.0669 285.049 15.9672C286.247 16.8676 286.836 18.1307 286.816 19.7566V29.3142C286.79 30.0669 286.852 30.82 287.001 31.5587C287.113 32.0141 287.362 32.426 287.715 32.7409C288.145 33.1457 288.934 33.4566 290.084 33.6639V34.14H279.907V33.6639C280.593 33.6092 281.264 33.4382 281.89 33.1587C282.328 32.8993 282.668 32.5071 282.858 32.0413C283.064 31.5426 283.184 31.0141 283.215 30.477C283.285 29.7774 283.32 28.7734 283.317 27.4649V22.6877C283.341 21.4826 283.284 20.2774 283.146 19.0797C283.071 18.4232 282.845 17.792 282.485 17.2336C282.112 16.6879 281.585 16.2603 280.968 16.0029C280.282 15.7054 279.538 15.5563 278.787 15.5656C277.96 15.5593 277.14 15.7283 276.385 16.0612C275.69 16.3539 275.086 16.8194 274.631 17.4117C274.17 18.0132 273.859 18.7119 273.722 19.4522C273.544 20.703 273.471 21.966 273.504 23.2286V27.6463L273.527 29.3142C273.501 30.0669 273.563 30.82 273.712 31.5587C273.824 32.0141 274.072 32.426 274.426 32.7409C274.855 33.1457 275.645 33.4566 276.795 33.6639V34.14H266.618V33.6639C267.304 33.6102 267.974 33.4403 268.601 33.1619C269.034 32.9058 269.373 32.5213 269.569 32.064C269.774 31.5664 269.895 31.0389 269.926 30.5029C269.995 29.8065 270.031 28.8025 270.031 27.4843V21.9201C270.049 20.8393 270.011 19.7583 269.916 18.6813C269.865 18.1449 269.691 17.6266 269.407 17.1656C269.184 16.7835 268.858 16.4687 268.465 16.2555C267.963 16.0398 267.424 15.9221 266.876 15.9089V15.4296L273.183 14.6167Z" fill="url(#paint23_linear_28707_44517)"/>
<path d="M296.051 21.8618C295.992 22.597 295.959 23.1314 295.959 23.4812C295.957 24.7809 296.154 26.0734 296.544 27.3159C296.87 28.444 297.411 29.5012 298.139 30.4316C298.834 31.2737 299.711 31.9536 300.708 32.4219C301.704 32.8903 302.794 33.1353 303.899 33.1392C304.701 33.1429 305.498 33.0058 306.251 32.7344C306.944 32.494 307.574 32.1083 308.098 31.604C308.649 31.0793 309.124 30.2373 309.522 29.0778L310.005 29.2365C309.608 30.9962 308.752 32.3241 307.437 33.2202C306.122 34.1162 304.377 34.5632 302.2 34.561C300.535 34.6042 298.879 34.3041 297.34 33.6801C295.977 33.0834 294.795 32.1505 293.91 30.9725C292.604 29.2732 291.952 27.182 291.954 24.699C291.954 21.3155 293.19 18.6597 295.661 16.7316C297.398 15.3521 299.572 14.6098 301.807 14.6328C302.976 14.6235 304.136 14.8437 305.217 15.2806C306.546 15.808 307.676 16.7261 308.451 17.9087C309.226 19.0913 309.609 20.4802 309.545 21.8845L296.051 21.8618ZM306.093 20.9808C305.982 19.4694 305.699 18.311 305.243 17.5056C304.855 16.7933 304.286 16.1909 303.591 15.7567C302.938 15.3359 302.173 15.1109 301.391 15.1089C300.069 15.1089 298.919 15.666 297.941 16.7802C296.92 17.9685 296.307 19.4415 296.187 20.9906L306.093 20.9808Z" fill="url(#paint24_linear_28707_44517)"/>
<path d="M319.005 18.0887C319.462 17.2508 320.099 16.5203 320.872 15.9478C322.141 15.0613 323.665 14.595 325.223 14.6167C326.221 14.6167 326.981 14.8326 327.503 15.2644C327.727 15.4347 327.908 15.6534 328.032 15.9033C328.156 16.1533 328.219 16.4279 328.217 16.7057C328.224 16.8985 328.189 17.0905 328.116 17.2695C328.042 17.4485 327.932 17.6106 327.791 17.7453C327.645 17.8805 327.473 17.986 327.285 18.0555C327.098 18.125 326.898 18.1572 326.697 18.1502C326.436 18.1475 326.179 18.088 325.944 17.9759C325.709 17.8639 325.502 17.7022 325.339 17.5024L324.625 16.7381C324.372 16.463 324.063 16.2434 323.717 16.0938C323.372 15.9442 322.998 15.868 322.62 15.8701C321.576 15.8701 320.763 16.5319 320.181 17.8555C319.6 19.179 319.308 21.0144 319.306 23.3614V27.5718L319.329 29.2851C319.303 30.0377 319.365 30.7908 319.514 31.5296C319.625 31.9849 319.874 32.3969 320.228 32.7117C320.654 33.1166 321.447 33.4275 322.597 33.6348V34.1109H312.42V33.6348C313.106 33.5821 313.777 33.4122 314.402 33.1328C314.83 32.8843 315.168 32.5104 315.367 32.064C315.573 31.5664 315.694 31.0389 315.724 30.5029C315.793 29.8065 315.83 28.8025 315.83 27.4843V21.9201C315.848 20.8393 315.809 19.7583 315.714 18.6814C315.667 18.1457 315.496 17.6275 315.215 17.1656C314.992 16.7835 314.666 16.4687 314.274 16.2555C313.772 16.0398 313.232 15.9221 312.684 15.909V15.4296L318.632 14.6167C318.865 15.7602 318.99 16.9225 319.005 18.0887Z" fill="url(#paint25_linear_28707_44517)"/>
<path d="M330.414 34.14V27.7531H330.781C331.107 29.0791 331.653 30.3439 332.397 31.4971C333.575 33.1986 334.953 34.0493 336.53 34.0493C337.443 34.0677 338.332 33.763 339.035 33.191C339.801 32.5432 340.181 31.6655 340.181 30.5061C340.199 29.6105 339.908 28.7351 339.355 28.0219C339.022 27.6227 338.632 27.2735 338.195 26.9855C337.435 26.5002 336.649 26.0559 335.839 25.6544C333.91 24.6439 332.623 23.8007 331.98 23.1249C331.091 22.2328 330.596 21.0331 330.602 19.7857C330.581 18.4881 331.077 17.2334 331.984 16.2878C333.043 15.1737 334.448 14.6166 336.2 14.6166C336.949 14.611 337.692 14.7485 338.387 15.0215L339.17 15.3453C339.38 15.4298 339.604 15.4759 339.831 15.4814C340.122 15.4814 340.399 15.2547 340.66 14.8045H341.12L341.374 19.925H340.891C340.763 19.3319 340.582 18.751 340.35 18.189C340.144 17.7306 339.87 17.3048 339.537 16.9259C339.085 16.3723 338.523 15.9149 337.885 15.5818C337.315 15.2725 336.676 15.1056 336.024 15.096C335.615 15.0903 335.208 15.1686 334.831 15.3259C334.454 15.4832 334.114 15.7159 333.834 16.0093C333.537 16.3055 333.304 16.657 333.148 17.043C332.991 17.4291 332.916 17.8419 332.925 18.257C332.928 18.9997 333.22 19.7133 333.741 20.2521C334.456 20.9611 335.312 21.5189 336.256 21.8909L338.691 22.9727C339.973 23.4895 341.097 24.3217 341.955 25.3888C342.678 26.3912 343.045 27.5985 343 28.8251C343.023 29.5497 342.896 30.2713 342.626 30.9465C342.357 31.6217 341.951 32.2365 341.433 32.7538C340.835 33.3508 340.117 33.8195 339.324 34.1301C338.531 34.4406 337.681 34.5863 336.827 34.5578C335.771 34.5501 334.724 34.3513 333.741 33.9715C333.081 33.7157 332.661 33.5699 332.522 33.5311C332.349 33.491 332.171 33.4725 331.993 33.476C331.745 33.4649 331.499 33.5224 331.283 33.6422C331.067 33.7619 330.889 33.9389 330.771 34.1529L330.414 34.14Z" fill="url(#paint26_linear_28707_44517)"/>
<path d="M90.1012 55.5969V47.9113H87.0713V47.1372H94.0463V47.9113H91.0131V55.5969H90.1012Z" fill="url(#paint27_linear_28707_44517)"/>
<path d="M98.6187 49.1906C99.0988 49.1812 99.5744 49.2833 100.006 49.4886C100.406 49.6865 100.732 50.0011 100.942 50.3889C101.182 50.8606 101.295 51.3845 101.272 51.9112V55.5969H100.396V51.9954C100.417 51.7221 100.382 51.4476 100.294 51.1875C100.207 50.9274 100.067 50.6868 99.8842 50.4796C99.6942 50.3017 99.4688 50.1641 99.222 50.0755C98.9753 49.9869 98.7125 49.9492 98.4502 49.9647C98.0323 49.9545 97.6186 50.048 97.2475 50.2367C96.9096 50.4153 96.6344 50.6895 96.4578 51.0237C96.2623 51.4073 96.1669 51.8324 96.1803 52.2609V55.5969H95.3047V46.6384H96.1803V51.0011L96.0085 50.6772C96.212 50.2226 96.5596 49.8444 96.9997 49.5987C97.4915 49.3208 98.0512 49.1797 98.6187 49.1906Z" fill="url(#paint28_linear_28707_44517)"/>
<path d="M106.393 55.655C105.775 55.6684 105.164 55.5244 104.619 55.2372C104.118 54.971 103.702 54.5728 103.419 54.0874C103.126 53.5769 102.978 52.9987 102.99 52.413C102.983 51.8319 103.131 51.259 103.419 50.7515C103.684 50.2762 104.076 49.8808 104.553 49.6082C105.044 49.3269 105.603 49.1825 106.172 49.1904C106.74 49.1807 107.3 49.3205 107.794 49.5953C108.266 49.8663 108.652 50.2597 108.911 50.7321C109.19 51.2507 109.33 51.8302 109.317 52.4162C109.317 52.4583 109.317 52.5004 109.317 52.5458C109.314 52.5911 109.314 52.6365 109.317 52.6818H103.7V52.0341H108.865L108.534 52.2867C108.542 51.8588 108.437 51.4362 108.23 51.0592C108.04 50.712 107.756 50.422 107.411 50.2203C107.048 50.0146 106.634 49.9104 106.215 49.9191C105.796 49.913 105.383 50.017 105.019 50.2203C104.667 50.4188 104.382 50.7123 104.196 51.0657C103.992 51.4494 103.89 51.877 103.899 52.3094V52.4681C103.89 52.9137 104.004 53.3535 104.229 53.7409C104.444 54.1054 104.761 54.4029 105.141 54.5992C105.548 54.8122 106.002 54.9234 106.463 54.923C106.84 54.9258 107.215 54.8565 107.566 54.719C107.906 54.581 108.207 54.3656 108.445 54.0907L108.941 54.6445C108.65 54.9847 108.279 55.2503 107.86 55.4186C107.393 55.5956 106.894 55.6761 106.393 55.655Z" fill="url(#paint29_linear_28707_44517)"/>
<path d="M114.323 55.5969V46.6384H115.199V51.1339L115.077 52.4294L115.162 53.7087V55.6196L114.323 55.5969ZM117.664 55.6552C117.129 55.6634 116.601 55.5326 116.134 55.2762C115.675 55.0161 115.304 54.6314 115.063 54.1686C114.785 53.6259 114.648 53.0237 114.667 52.4164C114.648 51.8073 114.787 51.2035 115.07 50.661C115.314 50.2022 115.688 49.8221 116.147 49.5663C116.611 49.3136 117.133 49.1841 117.664 49.1906C118.241 49.1834 118.81 49.3228 119.316 49.5954C119.799 49.86 120.197 50.2515 120.466 50.7258C120.741 51.2477 120.885 51.827 120.885 52.4148C120.885 53.0026 120.741 53.5818 120.466 54.1038C120.198 54.5811 119.8 54.9758 119.316 55.2439C118.812 55.5215 118.242 55.6634 117.664 55.6552ZM117.601 54.8941C118.034 54.8964 118.46 54.7845 118.833 54.5702C119.198 54.3635 119.498 54.062 119.699 53.699C119.905 53.297 120.013 52.8534 120.013 52.4035C120.013 51.9535 119.905 51.5099 119.699 51.1079C119.495 50.7492 119.196 50.4515 118.833 50.2464C118.46 50.0306 118.034 49.9186 117.601 49.9225C117.166 49.9199 116.738 50.0317 116.362 50.2464C115.999 50.4504 115.701 50.7485 115.5 51.1079C115.296 51.5106 115.19 51.954 115.19 52.4035C115.19 52.8529 115.296 53.2963 115.5 53.699C115.698 54.0625 115.997 54.3643 116.362 54.5702C116.739 54.7833 117.166 54.895 117.601 54.8941Z" fill="url(#paint30_linear_28707_44517)"/>
<path d="M125.429 55.655C124.811 55.6684 124.199 55.5244 123.655 55.2372C123.155 54.9714 122.741 54.5744 122.459 54.0907C122.166 53.5801 122.017 53.002 122.029 52.4162C122.016 51.8355 122.159 51.2615 122.442 50.7515C122.706 50.2762 123.098 49.8808 123.575 49.6082C124.066 49.3269 124.626 49.1825 125.195 49.1904C125.762 49.1807 126.323 49.3205 126.817 49.5953C127.289 49.8663 127.675 50.2597 127.934 50.7321C128.212 51.2507 128.352 51.8302 128.34 52.4162C128.34 52.4583 128.34 52.5004 128.34 52.5458C128.34 52.5911 128.34 52.6365 128.34 52.6818H122.693V52.0341H127.871L127.54 52.2867C127.548 51.8588 127.443 51.4362 127.236 51.0592C127.046 50.712 126.763 50.422 126.417 50.2203C126.054 50.0146 125.64 49.9104 125.221 49.9191C124.802 49.913 124.389 50.017 124.025 50.2203C123.673 50.4196 123.387 50.7128 123.199 51.0657C122.998 51.4503 122.897 51.8774 122.905 52.3094V52.4681C122.896 52.9137 123.01 53.3535 123.235 53.7409C123.451 54.1054 123.767 54.4029 124.147 54.5992C124.559 54.8148 125.019 54.9261 125.485 54.923C125.863 54.9258 126.238 54.8565 126.589 54.719C126.929 54.581 127.23 54.3656 127.468 54.0907L127.963 54.6445C127.673 54.9847 127.302 55.2503 126.883 55.4186C126.42 55.5939 125.925 55.6743 125.429 55.655Z" fill="url(#paint31_linear_28707_44517)"/>
<path d="M131.866 55.655C131.351 55.6581 130.84 55.5827 130.349 55.4316C129.941 55.318 129.559 55.1277 129.226 54.8713L129.622 54.1944C129.932 54.4104 130.272 54.5796 130.633 54.6964C131.049 54.8372 131.485 54.9084 131.925 54.9069C132.385 54.9422 132.845 54.843 133.247 54.6219C133.374 54.5401 133.478 54.428 133.549 54.296C133.62 54.164 133.656 54.0165 133.653 53.8672C133.659 53.7647 133.641 53.6622 133.602 53.567C133.562 53.4719 133.502 53.3864 133.425 53.3166C133.252 53.1727 133.047 53.0697 132.827 53.0154C132.555 52.9419 132.28 52.8835 132.001 52.8405C131.697 52.792 131.396 52.7369 131.096 52.6721C130.811 52.6129 130.535 52.5171 130.276 52.3871C130.036 52.2692 129.83 52.0931 129.678 51.8754C129.515 51.614 129.435 51.3104 129.45 51.0042C129.446 50.6712 129.55 50.3455 129.748 50.0746C129.968 49.7815 130.27 49.5566 130.617 49.4269C131.062 49.2572 131.537 49.1768 132.014 49.1905C132.439 49.1912 132.863 49.2467 133.273 49.3556C133.64 49.4411 133.989 49.5856 134.307 49.7831L133.924 50.473C133.644 50.282 133.332 50.1406 133.002 50.0552C132.679 49.9716 132.346 49.9291 132.011 49.9289C131.561 49.8952 131.111 49.9981 130.722 50.2236C130.595 50.3061 130.491 50.4182 130.419 50.5499C130.347 50.6816 130.309 50.8288 130.309 50.9783C130.303 51.0837 130.321 51.1893 130.36 51.2876C130.399 51.386 130.46 51.4749 130.537 51.5483C130.712 51.6981 130.919 51.8086 131.142 51.8722C131.413 51.9528 131.689 52.0144 131.968 52.0568C132.269 52.1053 132.569 52.1636 132.867 52.2349C133.151 52.2972 133.428 52.3895 133.693 52.5102C133.936 52.62 134.144 52.791 134.297 53.0057C134.46 53.2568 134.539 53.5508 134.525 53.8478C134.536 54.1972 134.425 54.5397 134.212 54.8194C133.974 55.1093 133.658 55.3272 133.3 55.4478C132.838 55.6002 132.352 55.6704 131.866 55.655Z" fill="url(#paint32_linear_28707_44517)"/>
<path d="M135.14 49.9645V49.252H139.138V49.9645H135.14ZM138.196 55.6551C137.941 55.671 137.685 55.6365 137.444 55.5536C137.203 55.4707 136.981 55.3411 136.792 55.1725C136.62 54.9888 136.488 54.7731 136.404 54.5383C136.319 54.3034 136.284 54.0543 136.299 53.8057V47.8496H137.175V53.7636C137.154 54.0754 137.257 54.383 137.462 54.6219C137.571 54.7274 137.702 54.8091 137.845 54.8616C137.989 54.9141 138.142 54.9361 138.295 54.9263C138.645 54.9389 138.988 54.8235 139.257 54.6025L139.564 55.2178C139.383 55.3683 139.171 55.4787 138.943 55.5417C138.698 55.6161 138.443 55.6543 138.186 55.6551H138.196Z" fill="url(#paint33_linear_28707_44517)"/>
<path d="M145.693 55.5967L143.255 49.252H144.091L146.311 55.1368H145.928L148.208 49.252H148.961L151.218 55.1368H150.835L153.091 49.252H153.891L151.439 55.5967H150.613L148.442 50.0616H148.703L146.519 55.5967H145.693Z" fill="url(#paint34_linear_28707_44517)"/>
<path d="M156.838 55.6551C156.404 55.6653 155.973 55.5847 155.573 55.4186C155.242 55.2838 154.958 55.059 154.753 54.7709C154.561 54.4826 154.461 54.1438 154.469 53.7992C154.467 53.4834 154.55 53.1727 154.71 52.8989C154.899 52.6082 155.175 52.3819 155.5 52.2511C155.968 52.0681 156.47 51.9842 156.974 52.005H159.204V52.6527H156.997C156.372 52.6527 155.94 52.7628 155.698 52.9766C155.578 53.0849 155.483 53.2175 155.421 53.3652C155.358 53.5129 155.329 53.6722 155.335 53.832C155.341 53.9919 155.383 54.1485 155.457 54.291C155.531 54.4336 155.636 54.5586 155.764 54.6575C156.12 54.8935 156.545 55.0074 156.974 54.9814C157.422 54.9951 157.864 54.8827 158.249 54.6575C158.611 54.426 158.886 54.0848 159.032 53.6859L159.227 54.2786C159.064 54.6975 158.763 55.051 158.371 55.2826C157.906 55.5461 157.375 55.6752 156.838 55.6551ZM159.069 55.5968V54.1944L159.032 53.9644V51.6196C159.047 51.3922 159.014 51.1642 158.934 50.9501C158.855 50.736 158.73 50.5405 158.57 50.3759C158.187 50.0601 157.694 49.9043 157.195 49.9419C156.787 49.9398 156.382 50.0088 155.999 50.1459C155.647 50.2678 155.321 50.4523 155.037 50.69L154.644 50.0423C154.992 49.7533 155.394 49.5334 155.827 49.3945C156.296 49.2441 156.787 49.1686 157.281 49.171C157.984 49.1262 158.679 49.345 159.224 49.7832C159.68 50.1891 159.908 50.8066 159.908 51.6357V55.5773L159.069 55.5968Z" fill="url(#paint35_linear_28707_44517)"/>
<path d="M162.211 58C161.915 58.0012 161.621 57.9519 161.342 57.8543C161.076 57.763 160.835 57.6148 160.635 57.4203L161.041 56.7725C161.198 56.9198 161.379 57.0402 161.576 57.1288C161.785 57.2168 162.01 57.2598 162.237 57.2551C162.506 57.261 162.769 57.179 162.984 57.0219C163.245 56.7939 163.45 56.5103 163.582 56.1928L164.002 55.2633L164.098 55.1305L166.761 49.2456H167.623L164.368 56.3547C164.222 56.7071 164.02 57.0349 163.77 57.3264C163.578 57.5483 163.336 57.7235 163.063 57.8381C162.792 57.9455 162.503 58.0005 162.211 58ZM163.939 55.775L160.965 49.2521H161.877L164.52 55.0819L163.939 55.775Z" fill="url(#paint36_linear_28707_44517)"/>
<path d="M171.062 49.9645V49.252H175.067V49.9645H171.062ZM174.129 55.6551C173.874 55.6712 173.618 55.6368 173.377 55.5539C173.135 55.471 172.913 55.3413 172.724 55.1725C172.552 54.9892 172.42 54.7736 172.335 54.5386C172.251 54.3037 172.216 54.0543 172.232 53.8057V47.8496H173.104V53.7636C173.084 54.0758 173.189 54.3835 173.395 54.6219C173.504 54.7276 173.635 54.8094 173.778 54.8619C173.922 54.9144 174.075 54.9364 174.228 54.9263C174.578 54.9389 174.921 54.8235 175.189 54.6025L175.497 55.2178C175.316 55.3683 175.104 55.4787 174.875 55.5417C174.634 55.6149 174.382 55.6531 174.129 55.6551Z" fill="url(#paint37_linear_28707_44517)"/>
<path d="M179.481 55.655C178.893 55.6641 178.312 55.52 177.799 55.2372C177.307 54.9679 176.899 54.5714 176.62 54.0907C176.339 53.5748 176.192 52.9992 176.192 52.4146C176.192 51.83 176.339 51.2544 176.62 50.7386C176.9 50.2638 177.305 49.8713 177.793 49.6017C178.309 49.3224 178.891 49.1806 179.481 49.1904C180.077 49.1807 180.666 49.3224 181.189 49.6017C181.677 49.8695 182.082 50.2625 182.359 50.7386C182.64 51.2544 182.786 51.83 182.786 52.4146C182.786 52.9992 182.64 53.5748 182.359 54.0907C182.082 54.5719 181.675 54.9688 181.183 55.2372C180.663 55.5201 180.076 55.6642 179.481 55.655ZM179.481 54.8939C179.918 54.8966 180.348 54.7848 180.727 54.57C181.09 54.3639 181.386 54.062 181.583 53.6988C181.786 53.2961 181.892 52.8528 181.892 52.4033C181.892 51.9538 181.786 51.5104 181.583 51.1078C181.384 50.7487 181.088 50.4505 180.727 50.2463C180.349 50.0444 179.925 49.9387 179.494 49.9387C179.064 49.9387 178.64 50.0444 178.262 50.2463C177.899 50.4513 177.6 50.7491 177.396 51.1078C177.188 51.5091 177.079 51.953 177.079 52.4033C177.079 52.8536 177.188 53.2975 177.396 53.6988C177.597 54.0619 177.897 54.3634 178.262 54.57C178.631 54.7831 179.052 54.895 179.481 54.8939Z" fill="url(#paint38_linear_28707_44517)"/>
<path d="M190.378 55.6552C189.8 55.6637 189.23 55.5218 188.726 55.2439C188.242 54.9751 187.843 54.5806 187.573 54.1038C187.297 53.5818 187.153 53.0026 187.153 52.4148C187.153 51.827 187.297 51.2477 187.573 50.7258C187.844 50.2525 188.243 49.8614 188.726 49.5954C189.232 49.3224 189.801 49.1829 190.378 49.1906C190.91 49.1825 191.434 49.3121 191.898 49.5663C192.355 49.824 192.727 50.2037 192.972 50.661C193.254 51.2038 193.392 51.8076 193.372 52.4164C193.39 53.0233 193.255 53.625 192.979 54.1686C192.738 54.6298 192.367 55.0141 191.911 55.2762C191.444 55.5342 190.915 55.665 190.378 55.6552ZM190.438 54.8941C190.873 54.8959 191.3 54.7841 191.677 54.5702C192.043 54.3655 192.343 54.0635 192.542 53.699C192.746 53.2963 192.852 52.8529 192.852 52.4034C192.852 51.954 192.746 51.5106 192.542 51.1079C192.341 50.7476 192.041 50.4493 191.677 50.2464C191.301 50.031 190.873 49.9191 190.438 49.9225C190.009 49.9208 189.588 50.0327 189.218 50.2464C188.857 50.4519 188.559 50.7497 188.356 51.1079C188.148 51.5093 188.039 51.9532 188.039 52.4034C188.039 52.8537 188.148 53.2976 188.356 53.699C188.557 54.0608 188.856 54.362 189.218 54.5702C189.588 54.7825 190.009 54.8944 190.438 54.8941ZM192.879 55.5969V53.686L192.965 52.4067L192.843 51.1112V46.6384H193.719V55.6066L192.879 55.5969Z" fill="url(#paint39_linear_28707_44517)"/>
<path d="M196.157 55.5969V49.2522H196.996V50.9784L196.911 50.6772C197.074 50.2162 197.397 49.8256 197.823 49.5728C198.306 49.3033 198.856 49.171 199.412 49.1906V50.0262H199.316H199.217C198.921 50.0102 198.625 50.0563 198.349 50.1613C198.072 50.2663 197.822 50.4278 197.614 50.6351C197.2 51.1189 196.992 51.7406 197.033 52.3711V55.6099L196.157 55.5969Z" fill="url(#paint40_linear_28707_44517)"/>
<path d="M201.447 47.8497C201.363 47.851 201.28 47.836 201.203 47.8057C201.125 47.7754 201.055 47.7303 200.995 47.6731C200.936 47.6159 200.888 47.5476 200.856 47.4723C200.823 47.397 200.806 47.3161 200.806 47.2343C200.805 47.1539 200.821 47.0742 200.853 47.0001C200.884 46.926 200.931 46.8591 200.991 46.8035C201.051 46.7459 201.122 46.7008 201.201 46.6707C201.279 46.6407 201.363 46.6264 201.447 46.6287C201.53 46.6265 201.614 46.6405 201.692 46.67C201.77 46.6994 201.842 46.7437 201.903 46.8003C201.963 46.8533 202.01 46.9184 202.042 46.9911C202.074 47.0637 202.09 47.1423 202.088 47.2213C202.09 47.3038 202.075 47.3858 202.045 47.4626C202.014 47.5394 201.968 47.6093 201.909 47.6683C201.85 47.7288 201.778 47.7763 201.698 47.8076C201.618 47.8388 201.533 47.8532 201.447 47.8497ZM201.004 55.5968V49.2521H201.883V55.5968H201.004Z" fill="url(#paint41_linear_28707_44517)"/>
<path d="M205.984 55.5967L203.109 49.252H204.025L206.668 55.1368H206.235L208.911 49.252H209.774L206.889 55.5967H205.984Z" fill="url(#paint42_linear_28707_44517)"/>
<path d="M213.563 55.655C212.945 55.6684 212.333 55.5244 211.789 55.2372C211.289 54.9714 210.875 54.5744 210.593 54.0907C210.299 53.5804 210.149 53.0022 210.16 52.4162C210.148 51.8357 210.291 51.2621 210.573 50.7515C210.839 50.2768 211.232 49.8817 211.709 49.6082C212.2 49.3269 212.76 49.1825 213.328 49.1904C213.896 49.1807 214.457 49.3205 214.951 49.5953C215.423 49.8655 215.808 50.2591 216.064 50.7321C216.343 51.2507 216.483 51.8302 216.471 52.4162C216.471 52.4583 216.471 52.5004 216.471 52.5458C216.467 52.5911 216.467 52.6365 216.471 52.6818H210.854V52.0341H215.992L215.645 52.2867C215.653 51.8591 215.55 51.4365 215.344 51.0592C215.152 50.7126 214.869 50.4229 214.525 50.2203C214.161 50.0146 213.748 49.9104 213.328 49.9191C212.91 49.913 212.496 50.017 212.132 50.2203C211.781 50.4196 211.494 50.7128 211.306 51.0657C211.106 51.4503 211.005 51.8774 211.012 52.3094V52.4681C211.004 52.9137 211.118 53.3535 211.343 53.7409C211.558 54.1054 211.874 54.4029 212.255 54.5992C212.661 54.8123 213.115 54.9236 213.576 54.923C213.954 54.9264 214.329 54.8571 214.68 54.719C215.021 54.5824 215.324 54.3668 215.562 54.0907L216.054 54.6445C215.765 54.9845 215.395 55.2502 214.977 55.4186C214.527 55.5887 214.046 55.6691 213.563 55.655Z" fill="url(#paint43_linear_28707_44517)"/>
</g>
<defs>
<linearGradient id="paint0_linear_28707_44517" x1="25.0583" y1="29.2268" x2="25.0583" y2="19.6206" gradientUnits="userSpaceOnUse">
<stop stop-color="#D0A440"/>
<stop offset="0.21" stop-color="#FFF690"/>
<stop offset="0.57" stop-color="#C6932F"/>
<stop offset="0.86" stop-color="#D8A844"/>
<stop offset="0.92" stop-color="#DCAD49"/>
</linearGradient>
<linearGradient id="paint1_linear_28707_44517" x1="25.0588" y1="40.3194" x2="25.0588" y2="34.7747" gradientUnits="userSpaceOnUse">
<stop stop-color="#D0A440"/>
<stop offset="0.21" stop-color="#FFF690"/>
<stop offset="0.57" stop-color="#C6932F"/>
<stop offset="0.86" stop-color="#D8A844"/>
<stop offset="0.92" stop-color="#DCAD49"/>
</linearGradient>
<linearGradient id="paint2_linear_28707_44517" x1="17.3303" y1="17.457" x2="17.3303" y2="11.9089" gradientUnits="userSpaceOnUse">
<stop stop-color="#D0A440"/>
<stop offset="0.21" stop-color="#FFF690"/>
<stop offset="0.57" stop-color="#C6932F"/>
<stop offset="0.86" stop-color="#D8A844"/>
<stop offset="0.92" stop-color="#DCAD49"/>
</linearGradient>
<linearGradient id="paint3_linear_28707_44517" x1="33.0119" y1="17.457" x2="33.0119" y2="11.9089" gradientUnits="userSpaceOnUse">
<stop stop-color="#D0A440"/>
<stop offset="0.21" stop-color="#FFF690"/>
<stop offset="0.57" stop-color="#C6932F"/>
<stop offset="0.86" stop-color="#D8A844"/>
<stop offset="0.92" stop-color="#DCAD49"/>
</linearGradient>
<linearGradient id="paint4_linear_28707_44517" x1="37.552" y1="31.9991" x2="37.552" y2="26.4543" gradientUnits="userSpaceOnUse">
<stop stop-color="#D0A440"/>
<stop offset="0.21" stop-color="#FFF690"/>
<stop offset="0.57" stop-color="#C6932F"/>
<stop offset="0.86" stop-color="#D8A844"/>
<stop offset="0.92" stop-color="#DCAD49"/>
</linearGradient>
<linearGradient id="paint5_linear_28707_44517" x1="13.1203" y1="31.9991" x2="13.1203" y2="26.4543" gradientUnits="userSpaceOnUse">
<stop stop-color="#D0A440"/>
<stop offset="0.21" stop-color="#FFF690"/>
<stop offset="0.57" stop-color="#C6932F"/>
<stop offset="0.86" stop-color="#D8A844"/>
<stop offset="0.92" stop-color="#DCAD49"/>
</linearGradient>
<linearGradient id="paint6_linear_28707_44517" x1="25.0589" y1="51.6843" x2="25.0589" y2="46.9492" gradientUnits="userSpaceOnUse">
<stop stop-color="#D0A440"/>
<stop offset="0.21" stop-color="#FFF690"/>
<stop offset="0.57" stop-color="#C6932F"/>
<stop offset="0.86" stop-color="#D8A844"/>
<stop offset="0.92" stop-color="#DCAD49"/>
</linearGradient>
<linearGradient id="paint7_linear_28707_44517" x1="25.0589" y1="8.2556" x2="25.0589" y2="3.52051" gradientUnits="userSpaceOnUse">
<stop stop-color="#D0A440"/>
<stop offset="0.21" stop-color="#FFF690"/>
<stop offset="0.57" stop-color="#C6932F"/>
<stop offset="0.86" stop-color="#D8A844"/>
<stop offset="0.92" stop-color="#DCAD49"/>
</linearGradient>
<linearGradient id="paint8_linear_28707_44517" x1="43.5549" y1="21.0554" x2="43.5549" y2="17.5381" gradientUnits="userSpaceOnUse">
<stop stop-color="#D0A440"/>
<stop offset="0.21" stop-color="#FFF690"/>
<stop offset="0.57" stop-color="#C6932F"/>
<stop offset="0.86" stop-color="#D8A844"/>
<stop offset="0.92" stop-color="#DCAD49"/>
</linearGradient>
<linearGradient id="paint9_linear_28707_44517" x1="10.7054" y1="8.2556" x2="10.7054" y2="3.52051" gradientUnits="userSpaceOnUse">
<stop stop-color="#D0A440"/>
<stop offset="0.21" stop-color="#FFF690"/>
<stop offset="0.57" stop-color="#C6932F"/>
<stop offset="0.86" stop-color="#D8A844"/>
<stop offset="0.92" stop-color="#DCAD49"/>
</linearGradient>
<linearGradient id="paint10_linear_28707_44517" x1="5.87438" y1="21.3793" x2="5.87438" y2="17.4571" gradientUnits="userSpaceOnUse">
<stop stop-color="#D0A440"/>
<stop offset="0.21" stop-color="#FFF690"/>
<stop offset="0.57" stop-color="#C6932F"/>
<stop offset="0.86" stop-color="#D8A844"/>
<stop offset="0.92" stop-color="#DCAD49"/>
</linearGradient>
<linearGradient id="paint11_linear_28707_44517" x1="1.78424" y1="34.4378" x2="1.78424" y2="30.9399" gradientUnits="userSpaceOnUse">
<stop stop-color="#D0A440"/>
<stop offset="0.21" stop-color="#FFF690"/>
<stop offset="0.57" stop-color="#C6932F"/>
<stop offset="0.86" stop-color="#D8A844"/>
<stop offset="0.92" stop-color="#DCAD49"/>
</linearGradient>
<linearGradient id="paint12_linear_28707_44517" x1="36.3394" y1="43.0272" x2="36.3394" y2="38.8589" gradientUnits="userSpaceOnUse">
<stop stop-color="#D0A440"/>
<stop offset="0.21" stop-color="#FFF690"/>
<stop offset="0.57" stop-color="#C6932F"/>
<stop offset="0.86" stop-color="#D8A844"/>
<stop offset="0.92" stop-color="#DCAD49"/>
</linearGradient>
<linearGradient id="paint13_linear_28707_44517" x1="48.059" y1="34.4152" x2="48.059" y2="30.9659" gradientUnits="userSpaceOnUse">
<stop stop-color="#D0A440"/>
<stop offset="0.21" stop-color="#FFF690"/>
<stop offset="0.57" stop-color="#C6932F"/>
<stop offset="0.86" stop-color="#D8A844"/>
<stop offset="0.92" stop-color="#DCAD49"/>
</linearGradient>
<linearGradient id="paint14_linear_28707_44517" x1="13.1207" y1="43.0272" x2="13.1207" y2="38.8589" gradientUnits="userSpaceOnUse">
<stop stop-color="#D0A440"/>
<stop offset="0.21" stop-color="#FFF690"/>
<stop offset="0.57" stop-color="#C6932F"/>
<stop offset="0.86" stop-color="#D8A844"/>
<stop offset="0.92" stop-color="#DCAD49"/>
</linearGradient>
<linearGradient id="paint15_linear_28707_44517" x1="39.4153" y1="8.2556" x2="39.4153" y2="3.52051" gradientUnits="userSpaceOnUse">
<stop stop-color="#D0A440"/>
<stop offset="0.21" stop-color="#FFF690"/>
<stop offset="0.57" stop-color="#C6932F"/>
<stop offset="0.86" stop-color="#D8A844"/>
<stop offset="0.92" stop-color="#DCAD49"/>
</linearGradient>
<linearGradient id="paint16_linear_28707_44517" x1="103.001" y1="34.1398" x2="103.001" y2="3.32935" gradientUnits="userSpaceOnUse">
<stop stop-color="#D0A440"/>
<stop offset="0.21" stop-color="#FFF690"/>
<stop offset="0.57" stop-color="#C6932F"/>
<stop offset="0.86" stop-color="#D8A844"/>
<stop offset="0.92" stop-color="#DCAD49"/>
</linearGradient>
<linearGradient id="paint17_linear_28707_44517" x1="129.744" y1="34.5449" x2="129.744" y2="14.6167" gradientUnits="userSpaceOnUse">
<stop stop-color="#D0A440"/>
<stop offset="0.21" stop-color="#FFF690"/>
<stop offset="0.57" stop-color="#C6932F"/>
<stop offset="0.86" stop-color="#D8A844"/>
<stop offset="0.92" stop-color="#DCAD49"/>
</linearGradient>
<linearGradient id="paint18_linear_28707_44517" x1="153.025" y1="34.5448" x2="153.025" y2="14.6166" gradientUnits="userSpaceOnUse">
<stop stop-color="#D0A440"/>
<stop offset="0.21" stop-color="#FFF690"/>
<stop offset="0.57" stop-color="#C6932F"/>
<stop offset="0.86" stop-color="#D8A844"/>
<stop offset="0.92" stop-color="#DCAD49"/>
</linearGradient>
<linearGradient id="paint19_linear_28707_44517" x1="174.819" y1="34.9076" x2="174.819" y2="2.54248" gradientUnits="userSpaceOnUse">
<stop stop-color="#D0A440"/>
<stop offset="0.21" stop-color="#FFF690"/>
<stop offset="0.57" stop-color="#C6932F"/>
<stop offset="0.86" stop-color="#D8A844"/>
<stop offset="0.92" stop-color="#DCAD49"/>
</linearGradient>
<linearGradient id="paint20_linear_28707_44517" x1="202.772" y1="34.1398" x2="202.772" y2="3.32935" gradientUnits="userSpaceOnUse">
<stop stop-color="#D0A440"/>
<stop offset="0.21" stop-color="#FFF690"/>
<stop offset="0.57" stop-color="#C6932F"/>
<stop offset="0.86" stop-color="#D8A844"/>
<stop offset="0.92" stop-color="#DCAD49"/>
</linearGradient>
<linearGradient id="paint21_linear_28707_44517" x1="229.321" y1="34.5447" x2="229.321" y2="14.9534" gradientUnits="userSpaceOnUse">
<stop stop-color="#D0A440"/>
<stop offset="0.21" stop-color="#FFF690"/>
<stop offset="0.57" stop-color="#C6932F"/>
<stop offset="0.86" stop-color="#D8A844"/>
<stop offset="0.92" stop-color="#DCAD49"/>
</linearGradient>
<linearGradient id="paint22_linear_28707_44517" x1="253.808" y1="34.1398" x2="253.808" y2="14.6165" gradientUnits="userSpaceOnUse">
<stop stop-color="#D0A440"/>
<stop offset="0.21" stop-color="#FFF690"/>
<stop offset="0.57" stop-color="#C6932F"/>
<stop offset="0.86" stop-color="#D8A844"/>
<stop offset="0.92" stop-color="#DCAD49"/>
</linearGradient>
<linearGradient id="paint23_linear_28707_44517" x1="278.354" y1="34.14" x2="278.354" y2="14.6167" gradientUnits="userSpaceOnUse">
<stop stop-color="#D0A440"/>
<stop offset="0.21" stop-color="#FFF690"/>
<stop offset="0.57" stop-color="#C6932F"/>
<stop offset="0.86" stop-color="#D8A844"/>
<stop offset="0.92" stop-color="#DCAD49"/>
</linearGradient>
<linearGradient id="paint24_linear_28707_44517" x1="300.974" y1="34.5448" x2="300.974" y2="14.6166" gradientUnits="userSpaceOnUse">
<stop stop-color="#D0A440"/>
<stop offset="0.21" stop-color="#FFF690"/>
<stop offset="0.57" stop-color="#C6932F"/>
<stop offset="0.86" stop-color="#D8A844"/>
<stop offset="0.92" stop-color="#DCAD49"/>
</linearGradient>
<linearGradient id="paint25_linear_28707_44517" x1="320.317" y1="34.14" x2="320.317" y2="14.6167" gradientUnits="userSpaceOnUse">
<stop stop-color="#D0A440"/>
<stop offset="0.21" stop-color="#FFF690"/>
<stop offset="0.57" stop-color="#C6932F"/>
<stop offset="0.86" stop-color="#D8A844"/>
<stop offset="0.92" stop-color="#DCAD49"/>
</linearGradient>
<linearGradient id="paint26_linear_28707_44517" x1="336.702" y1="34.5448" x2="336.702" y2="14.6166" gradientUnits="userSpaceOnUse">
<stop stop-color="#D0A440"/>
<stop offset="0.21" stop-color="#FFF690"/>
<stop offset="0.57" stop-color="#C6932F"/>
<stop offset="0.86" stop-color="#D8A844"/>
<stop offset="0.92" stop-color="#DCAD49"/>
</linearGradient>
<linearGradient id="paint27_linear_28707_44517" x1="90.5572" y1="55.5969" x2="90.5572" y2="47.1372" gradientUnits="userSpaceOnUse">
<stop stop-color="#D0A440"/>
<stop offset="0.21" stop-color="#FFF690"/>
<stop offset="0.57" stop-color="#C6932F"/>
<stop offset="0.86" stop-color="#D8A844"/>
<stop offset="0.92" stop-color="#DCAD49"/>
</linearGradient>
<linearGradient id="paint28_linear_28707_44517" x1="98.2982" y1="55.5969" x2="98.2982" y2="46.6287" gradientUnits="userSpaceOnUse">
<stop stop-color="#D0A440"/>
<stop offset="0.21" stop-color="#FFF690"/>
<stop offset="0.57" stop-color="#C6932F"/>
<stop offset="0.86" stop-color="#D8A844"/>
<stop offset="0.92" stop-color="#DCAD49"/>
</linearGradient>
<linearGradient id="paint29_linear_28707_44517" x1="106.152" y1="55.655" x2="106.152" y2="49.1904" gradientUnits="userSpaceOnUse">
<stop stop-color="#D0A440"/>
<stop offset="0.21" stop-color="#FFF690"/>
<stop offset="0.57" stop-color="#C6932F"/>
<stop offset="0.86" stop-color="#D8A844"/>
<stop offset="0.92" stop-color="#DCAD49"/>
</linearGradient>
<linearGradient id="paint30_linear_28707_44517" x1="117.608" y1="55.6552" x2="117.608" y2="46.6287" gradientUnits="userSpaceOnUse">
<stop stop-color="#D0A440"/>
<stop offset="0.21" stop-color="#FFF690"/>
<stop offset="0.57" stop-color="#C6932F"/>
<stop offset="0.86" stop-color="#D8A844"/>
<stop offset="0.92" stop-color="#DCAD49"/>
</linearGradient>
<linearGradient id="paint31_linear_28707_44517" x1="125.185" y1="55.655" x2="125.185" y2="49.1904" gradientUnits="userSpaceOnUse">
<stop stop-color="#D0A440"/>
<stop offset="0.21" stop-color="#FFF690"/>
<stop offset="0.57" stop-color="#C6932F"/>
<stop offset="0.86" stop-color="#D8A844"/>
<stop offset="0.92" stop-color="#DCAD49"/>
</linearGradient>
<linearGradient id="paint32_linear_28707_44517" x1="131.882" y1="55.655" x2="131.882" y2="49.1905" gradientUnits="userSpaceOnUse">
<stop stop-color="#D0A440"/>
<stop offset="0.21" stop-color="#FFF690"/>
<stop offset="0.57" stop-color="#C6932F"/>
<stop offset="0.86" stop-color="#D8A844"/>
<stop offset="0.92" stop-color="#DCAD49"/>
</linearGradient>
<linearGradient id="paint33_linear_28707_44517" x1="137.344" y1="55.6551" x2="137.344" y2="47.8496" gradientUnits="userSpaceOnUse">
<stop stop-color="#D0A440"/>
<stop offset="0.21" stop-color="#FFF690"/>
<stop offset="0.57" stop-color="#C6932F"/>
<stop offset="0.86" stop-color="#D8A844"/>
<stop offset="0.92" stop-color="#DCAD49"/>
</linearGradient>
<linearGradient id="paint34_linear_28707_44517" x1="148.571" y1="55.5967" x2="148.571" y2="49.252" gradientUnits="userSpaceOnUse">
<stop stop-color="#D0A440"/>
<stop offset="0.21" stop-color="#FFF690"/>
<stop offset="0.57" stop-color="#C6932F"/>
<stop offset="0.86" stop-color="#D8A844"/>
<stop offset="0.92" stop-color="#DCAD49"/>
</linearGradient>
<linearGradient id="paint35_linear_28707_44517" x1="157.188" y1="55.6551" x2="157.188" y2="49.1905" gradientUnits="userSpaceOnUse">
<stop stop-color="#D0A440"/>
<stop offset="0.21" stop-color="#FFF690"/>
<stop offset="0.57" stop-color="#C6932F"/>
<stop offset="0.86" stop-color="#D8A844"/>
<stop offset="0.92" stop-color="#DCAD49"/>
</linearGradient>
<linearGradient id="paint36_linear_28707_44517" x1="164.124" y1="58" x2="164.124" y2="49.2521" gradientUnits="userSpaceOnUse">
<stop stop-color="#D0A440"/>
<stop offset="0.21" stop-color="#FFF690"/>
<stop offset="0.57" stop-color="#C6932F"/>
<stop offset="0.86" stop-color="#D8A844"/>
<stop offset="0.92" stop-color="#DCAD49"/>
</linearGradient>
<linearGradient id="paint37_linear_28707_44517" x1="173.276" y1="55.6551" x2="173.276" y2="47.8496" gradientUnits="userSpaceOnUse">
<stop stop-color="#D0A440"/>
<stop offset="0.21" stop-color="#FFF690"/>
<stop offset="0.57" stop-color="#C6932F"/>
<stop offset="0.86" stop-color="#D8A844"/>
<stop offset="0.92" stop-color="#DCAD49"/>
</linearGradient>
<linearGradient id="paint38_linear_28707_44517" x1="179.488" y1="55.655" x2="179.488" y2="49.1904" gradientUnits="userSpaceOnUse">
<stop stop-color="#D0A440"/>
<stop offset="0.21" stop-color="#FFF690"/>
<stop offset="0.57" stop-color="#C6932F"/>
<stop offset="0.86" stop-color="#D8A844"/>
<stop offset="0.92" stop-color="#DCAD49"/>
</linearGradient>
<linearGradient id="paint39_linear_28707_44517" x1="190.434" y1="55.6552" x2="190.434" y2="46.6287" gradientUnits="userSpaceOnUse">
<stop stop-color="#D0A440"/>
<stop offset="0.21" stop-color="#FFF690"/>
<stop offset="0.57" stop-color="#C6932F"/>
<stop offset="0.86" stop-color="#D8A844"/>
<stop offset="0.92" stop-color="#DCAD49"/>
</linearGradient>
<linearGradient id="paint40_linear_28707_44517" x1="197.786" y1="55.5969" x2="197.786" y2="49.1906" gradientUnits="userSpaceOnUse">
<stop stop-color="#D0A440"/>
<stop offset="0.21" stop-color="#FFF690"/>
<stop offset="0.57" stop-color="#C6932F"/>
<stop offset="0.86" stop-color="#D8A844"/>
<stop offset="0.92" stop-color="#DCAD49"/>
</linearGradient>
<linearGradient id="paint41_linear_28707_44517" x1="201.447" y1="55.5968" x2="201.447" y2="46.6287" gradientUnits="userSpaceOnUse">
<stop stop-color="#D0A440"/>
<stop offset="0.21" stop-color="#FFF690"/>
<stop offset="0.57" stop-color="#C6932F"/>
<stop offset="0.86" stop-color="#D8A844"/>
<stop offset="0.92" stop-color="#DCAD49"/>
</linearGradient>
<linearGradient id="paint42_linear_28707_44517" x1="206.44" y1="55.5967" x2="206.44" y2="49.252" gradientUnits="userSpaceOnUse">
<stop stop-color="#D0A440"/>
<stop offset="0.21" stop-color="#FFF690"/>
<stop offset="0.57" stop-color="#C6932F"/>
<stop offset="0.86" stop-color="#D8A844"/>
<stop offset="0.92" stop-color="#DCAD49"/>
</linearGradient>
<linearGradient id="paint43_linear_28707_44517" x1="213.315" y1="55.655" x2="213.315" y2="49.1904" gradientUnits="userSpaceOnUse">
<stop stop-color="#D0A440"/>
<stop offset="0.21" stop-color="#FFF690"/>
<stop offset="0.57" stop-color="#C6932F"/>
<stop offset="0.86" stop-color="#D8A844"/>
<stop offset="0.92" stop-color="#DCAD49"/>
</linearGradient>
<clipPath id="clip0_28707_44517">
<rect width="343" height="58" fill="white"/>
</clipPath>
</defs>
</svg>
